<ttFont>
          <CharString index="0">
            -105 callgsubr
            -97 callsubr
            hvcurveto
            -79 callsubr
            return
          </CharString>
          <CharString index="1">
            -29 24 -24 29 30 -84 callgsubr
            -30 -73 callgsubr
            return
          </CharString>
          <CharString index="2">
            -103 callsubr
            -43 callgsubr
            hvcurveto
            -57 callsubr
            return
          </CharString>
          <CharString index="3">
            -78 -36 -49 -103 callgsubr
            return
          </CharString>
          <CharString index="4">
            115 rmoveto
            -87 -30 -31 -20 -50 hhcurveto
            -62 -52 58 65 53 24 45 48 22 16 -8 -21 21 hvcurveto
            -4 4 6 -6 55 callsubr
            1 4 4 4 -1 3 -1 2 hvcurveto
            24 -13 -34 17 -26 hhcurveto
            -56 -39 -48 -64 return
          </CharString>
          <CharString index="5">
            -93 callgsubr
            9 -4 1 -2 hvcurveto
            -16 return
          </CharString>
          <CharString index="6">
            -94 callgsubr
            -81 callgsubr
            return
          </CharString>
          <CharString index="7">
            -19 -9 -10 -18 -25 hhcurveto
            -18 -24 9 23 -8 hvcurveto
            -217 576 rlineto
            36 -13 -9 19 -6 hhcurveto
            -5 -4 -14 -30 -11 hvcurveto
            -19 -115 -44 callsubr
            return
          </CharString>
          <CharString index="8">
            -96 callgsubr
            -19 callgsubr
            -27 callgsubr
            return
          </CharString>
          <CharString index="9">
            32 231 rmoveto
            -166 153 -70 98 102 147 64 176 143 -104 93 -142 -153 -101 -106 -134 vhcurveto
            100 -5 rmoveto
            88 8 137 140 return
          </CharString>
          <CharString index="10">
            12 -15 7 -20 -45 -23 -36 -36 -50 45 -40 51 57 46 50 28 10 return
          </CharString>
          <CharString index="11">
            346 230 rmoveto
            51 46 23 27 35 hvcurveto
            -109 vlineto
            -76 -52 -84 -81 -73 -76 60 74 vhcurveto
            25 12 12 13 vvcurveto
            7 -3 4 -5 -14 -10 -25 -31 -97 94 -63 102 108 101 70 113 vhcurveto
            299 vlineto
            124 -27 101 -111 -69 -55 -49 -74 -46 25 -41 50 vhcurveto
            -64 callgsubr
            62 43 46 68 hvcurveto
            return
          </CharString>
          <CharString index="12">
            343 -3 rmoveto
            51 49 15 27 35 hvcurveto
            -121 vlineto
            -76 -55 -71 -81 -70 -79 54 70 16 4 13 6 12 vhcurveto
            1 2 1 2 3 vvcurveto
            6 -3 4 -6 -5 -3 -2 -4 -3 vhcurveto
            -6 -8 -6 -21 -24 vvcurveto
            -93 94 -51 102 108 101 57 113 vhcurveto
            319 vlineto
            117 -14 116 -100 -63 -45 -39 -63 -46 25 -40 1 callsubr
            return
          </CharString>
          <CharString index="13">
            vlineto
            -104 callsubr
            return
          </CharString>
          <CharString index="14">
            -44 callgsubr
            57 20 75 85 -45 42 -77 -79 -66 -69 -132 hvcurveto
            -106 57 -98 -140 vvcurveto
            -167 -70 -44 -77 -110 -27 88 122 vhcurveto
            476 vlineto
            return
          </CharString>
          <CharString index="15">
            -15 callgsubr
            266 55 callgsubr
            hintmask 10111000
            -102 callgsubr
            hintmask 01111000
            -91 callgsubr
            hintmask 10111000
            -100 callsubr
            return
          </CharString>
          <CharString index="16">
            -20 -50 callgsubr
            hintmask 1100111011111000
            -62 callgsubr
            hintmask 1001111101111000
            9 -4 1 -2 vhcurveto
            24 callgsubr
            -40 -15 31 29 -60 callgsubr
            75 -465 hlineto
            -183 127 -37 93 105 80 52 173 vhcurveto
            hintmask 1010111101110100
            -81 callsubr
            hintmask 1100111101111000
            -93 callsubr
            return
          </CharString>
          <CharString index="17">
            -72 callgsubr
            -63 callgsubr
          </CharString>
          <CharString index="18">
            rmoveto
            -90 callsubr
          </CharString>
          <CharString index="19">
            -79 100 250 vlineto
            160 -69 64 -131 -110 -64 -42 -55 -7 6 -4 5 5 5 4 8 return
          </CharString>
          <CharString index="20">
            -85 callgsubr
            -40 callsubr
            return
          </CharString>
          <CharString index="21">
            -2 8 19 -4 16 hhcurveto
            16 14 4 13 10 -9 3 -12 hvcurveto
            -15 -19 -4 -19 hhcurveto
            -68 19 -59 44 73 vvcurveto
            78 62 58 87 vhcurveto
            return
          </CharString>
          <CharString index="22">
            262 hmoveto
            696 -92 callgsubr
            return
          </CharString>
          <CharString index="23">
            -13 callgsubr
            251 -20 6 callsubr
            hintmask 10011110
            -87 callsubr
            hintmask 01011101
            -1 callgsubr
            hintmask 10101110
            -71 callsubr
            return
          </CharString>
          <CharString index="24">
            24 -20 1 -39 -80 callgsubr
            return
          </CharString>
          <CharString index="25">
            rmoveto
            -100 hlineto
            -63 -120 rlineto
            49 hlineto
            endchar
          </CharString>
          <CharString index="26">
            145 -57 92 111 vvcurveto
            127 62 55 65 67 33 -39 -67 -41 -19 -35 -43 vhcurveto
            -32 6 20 -12 hhcurveto
            return
          </CharString>
          <CharString index="27">
            -39 callgsubr
            -66 callgsubr
            return
          </CharString>
          <CharString index="28">
            1 -11 0 -11 -12 vvcurveto
            -198 -61 -110 -147 -75 -117 36 285 vhcurveto
            return
          </CharString>
          <CharString index="29">
            rmoveto
            6 -9 -4 2 -5 hhcurveto
            -6 -2 -4 -4 -11 return
          </CharString>
          <CharString index="30">
            -58 callsubr
            -87 -146 -62 -106 -77 77 -55 88 -6 return
          </CharString>
          <CharString index="31">
            hhcurveto
            -14 -20 -4 -6 -9 hvcurveto
            -5 -3 -3 -6 -5 vvcurveto
            -4 2 -3 4 4 4 3 1 3 vhcurveto
            return
          </CharString>
          <CharString index="32">
            hhcurveto
            14 20 4 6 9 hvcurveto
            5 3 3 6 5 vvcurveto
            4 -2 3 -4 -4 -4 -3 -1 -3 vhcurveto
            return
          </CharString>
          <CharString index="33">
            -76 callgsubr
            hintmask 10100000
            -68 callsubr
            endchar
          </CharString>
          <CharString index="34">
            -8 callsubr
            -26 -15 -17 -33 -10 vhcurveto
            -5 -1 -4 -5 -4 vvcurveto
            return
          </CharString>
          <CharString index="35">
            rmoveto
            -123 -118 -38 -68 -83 -109 55 104 -41 callgsubr
            -128 135 -50 79 81 145 53 179 109 -58 42 -50 22 hvcurveto
            -111 49 -155 -4 111 vvcurveto
            81 93 53 -11 callsubr
            return
          </CharString>
          <CharString index="36">
            36 -2 -25 44 -45 -76 callsubr
            return
          </CharString>
          <CharString index="37">
            -35 3 25 -42 44 -75 callsubr
            return
          </CharString>
          <CharString index="38">
            -36 30 -30 36 -26 callgsubr
            return
          </CharString>
          <CharString index="39">
            -8 12 -3 5 52 41 61 45 44 -21 49 -54 13 callsubr
            return
          </CharString>
          <CharString index="40">
            -5 -13 -11 -2 -9 hhcurveto
            -42 -11 46 23 63 75 65 57 50 10 -92 -142 hvcurveto
            return
          </CharString>
          <CharString index="41">
            -3 callsubr
            hvcurveto
            -64 callsubr
            21 return
          </CharString>
          <CharString index="42">
            339 686 rmoveto
            71 59 -32 -54 -32 -22 -16 -29 hvcurveto
            -51 4 45 -16 hhcurveto
            return
          </CharString>
          <CharString index="43">
            -7 -9 -14 -26 hhcurveto
            -49 -9 47 return
          </CharString>
          <CharString index="44">
            -79 65 -65 79 78 65 65 79 78 -65 65 -78 -79 -65 -65 -78 vhcurveto
            return
          </CharString>
          <CharString index="45">
            -327 -67 2 callsubr
            hstemhm
            36 141 hintmask 01100000
            36 66 -74 callsubr
          </CharString>
          <CharString index="46">
            -68 callgsubr
            100 234 vlineto
            return
          </CharString>
          <CharString index="47">
            9 -13 1 -8 -43 -35 -26 -36 -15 vhcurveto
            86 5 44 73 59 hhcurveto
            return
          </CharString>
          <CharString index="48">
            -8 vvcurveto
            -43 -56 -33 -48 -72 -20 72 57 return
          </CharString>
          <CharString index="49">
            -25 33 -28 41 34 33 20 47 90 -119 15 -46 return
          </CharString>
          <CharString index="50">
            41 119 rlineto
            233 hlineto
            61 -163 rlineto
            return
          </CharString>
          <CharString index="51">
            -24 44 -32 -60 45 hhcurveto
            17 8 11 13 9 -3 8 -3 7 hvcurveto
            42 -19 -71 28 -61 hhcurveto
            -77 -117 -28 -104 -86 66 -30 108 -17 hvcurveto
            69 -11 79 -13 -63 vvcurveto
            -68 -75 -45 -74 -44 -101 36 45 vhcurveto
            17 20 14 14 vvcurveto
            return
          </CharString>
          <CharString index="52">
            hvcurveto
            -74 callgsubr
            -97 callsubr
            hvcurveto
            return
          </CharString>
          <CharString index="53">
            207 12 -21 533 20 0 20 -20 43 89 20 50 20 return
          </CharString>
          <CharString index="54">
            -116 -19 -106 -126 -106 -48 74 137 vhcurveto
            return
          </CharString>
          <CharString index="55">
            119 108 54 114 101 -86 41 -64 -68 return
          </CharString>
          <CharString index="56">
            -59 callgsubr
            -15 -6 -18 -22 -30 vvcurveto
            -50 49 -21 36 return
          </CharString>
          <CharString index="57">
            206 -10 rmoveto
            64 59 36 53 9 hvcurveto
            return
          </CharString>
          <CharString index="58">
            -39 -16 29 31 -5 callsubr
            return
          </CharString>
          <CharString index="59">
            vlineto
            -5 29 -16 24 -23 16 rrcurveto
            return
          </CharString>
          <CharString index="60">
            26 11 -21 292 136 -30 30 -30 164 -18 172 -20 20 return
          </CharString>
          <CharString index="61">
            -40 -30 -31 -34 -20 -39 10 41 vhcurveto
            26 15 1 10 vvcurveto
            6 -5 1 -3 -18 -9 -29 -20 vhcurveto
            return
          </CharString>
          <CharString index="62">
            -44 8 callgsubr
            273 201 return
          </CharString>
          <CharString index="63">
            rmoveto
            114 -307 rlineto
            -220 hlineto
            return
          </CharString>
          <CharString index="64">
            -61 callsubr
            0 callsubr
            return
          </CharString>
          <CharString index="65">
            -26 -27 49 callsubr
            hvcurveto
            -51 callsubr
            50 33 39 51 vhcurveto
            return
          </CharString>
          <CharString index="66">
            36 -30 31 -32 -9 -9 -3 -5 -8 vhcurveto
            26 15 17 33 10 vhcurveto
            5 1 4 5 4 vvcurveto
            return
          </CharString>
          <CharString index="67">
            -132 9 -107 120 80 98 69 87 5 vhcurveto
            return
          </CharString>
          <CharString index="68">
            -8 callsubr
            -35 -26 -10 -22 -8 vhcurveto
            -6 -2 -3 -4 -4 vvcurveto
            hintmask 10110000
            -6 7 -5 13 43 47 54 56 38 -22 51 -51 -39 -29 -30 -36 vhcurveto
            return
          </CharString>
          <CharString index="69">
            -47 -63 33 57 hvcurveto
            52 52 11 13 vvcurveto
            3 -2 7 -6 vhcurveto
            return
          </CharString>
          <CharString index="70">
            -28 callsubr
            -328 vmoveto
            -97 callgsubr
            endchar
          </CharString>
          <CharString index="71">
            -36 -30 -30 -36 return
          </CharString>
          <CharString index="72">
            hstem
            64 100 -34 callsubr
            return
          </CharString>
          <CharString index="73">
            vstem
            164 462 rmoveto
            -100 -463 100 hlineto
            return
          </CharString>
          <CharString index="74">
            -58 -18 47 23 22 18 30 28 return
          </CharString>
          <CharString index="75">
            12 -29 callsubr
            return
          </CharString>
          <CharString index="76">
            -20 callsubr
            -34 callgsubr
            return
          </CharString>
          <CharString index="77">
            rmoveto
            85 vlineto
            -177 192 177 184 rlineto
            85 vlineto
            -277 -269 rlineto
            return
          </CharString>
          <CharString index="78">
            hhcurveto
            4 2 3 5 return
          </CharString>
          <CharString index="79">
            rmoveto
            -97 callgsubr
            return
          </CharString>
          <CharString index="80">
            -183 -21 callsubr
            return
          </CharString>
          <CharString index="81">
            20 4 callgsubr
            return
          </CharString>
          <CharString index="82">
            rmoveto
            -82 0 -151 -100 vhcurveto
            hintmask 11110110
            -38 callsubr
            hintmask 11111010
            -10 -46 -22 -55 -7 hvcurveto
            return
          </CharString>
          <CharString index="83">
            8 -12 3 -5 -52 -41 -61 -45 -44 21 -49 54 53 callsubr
            return
          </CharString>
          <CharString index="84">
            -5 -1 -4 -5 -24 22 -29 42 36 36 22 48 return
          </CharString>
          <CharString index="85">
            -76 -5 callgsubr
            -19 135 return
          </CharString>
          <CharString index="86">
            21 2 callgsubr
            return
          </CharString>
          <CharString index="87">
            -71 -40 -74 -76 -41 -41 32 52 return
          </CharString>
          <CharString index="88">
            77 69 -41 -101 -85 -63 -45 -49 return
          </CharString>
          <CharString index="89">
            135 vstem
            88 467 rmoveto
            -46 callgsubr
            return
          </CharString>
          <CharString index="90">
            -108 -39 -81 -73 -40 26 -49 45 15 47 callsubr
            -3 callsubr
            vhcurveto
            -64 callsubr
            20 44 10 76 65 return
          </CharString>
          <CharString index="91">
            -45 -18 -78 -65 -65 -18 78 45 vhcurveto
            return
          </CharString>
          <CharString index="92">
            hstemhm
            -27 -26 callsubr
            return
          </CharString>
          <CharString index="93">
            23 callgsubr
            334 300 -30 callgsubr
            return
          </CharString>
          <CharString index="94">
            -39 -14 31 29 37 24 34 67 hvcurveto
            159 hlineto
            -278 -418 -22 callgsubr
            return
          </CharString>
          <CharString index="95">
            216 -10 rmoveto
            89 101 47 119 hvcurveto
            223 -320 -116 105 vvcurveto
            52 67 35 81 27 26 -5 -9 22 vhcurveto
            return
          </CharString>
          <CharString index="96">
            79 75 83 -38 -62 -8 callgsubr
            return
          </CharString>
          <CharString index="97">
            27 hmoveto
            319 hlineto
            78 36 50 47 37 -22 39 -46 -38 -35 -27 -26 -9 4 -1 2 hvcurveto
            16 -1 43 45 hhcurveto
            return
          </CharString>
          <CharString index="98">
            -78 -36 -49 return
          </CharString>
          <CharString index="99">
            -36 30 -31 32 9 9 3 5 8 vhcurveto
            return
          </CharString>
          <CharString index="100">
            -33 443 rmoveto
            69 34 -38 -91 return
          </CharString>
          <CharString index="101">
            10 -18 8 hhcurveto
            5 6 6 5 return
          </CharString>
          <CharString index="102">
            -60 callgsubr
            76 return
          </CharString>
          <CharString index="103">
            vlineto
            -74 74 -35 65 47 14 18 9 2 -1 8 -6 vhcurveto
            -8 0 -17 -34 hhcurveto
            -41 -9 25 23 hvcurveto
            return
          </CharString>
          <CharString index="104">
            5 -3 6 -4 return
          </CharString>
          <CharString index="105">
            -10 -46 -22 -55 -7 hvcurveto
            274 vlineto
            34 41 49 31 34 hhcurveto
            55 60 -82 -123 hvcurveto
            endchar
          </CharString>
          <CharString index="106">
            hstemhm
            32 103 -103 116 198 86 return
          </CharString>
          <CharString index="107">
            132 -9 107 -120 -80 -98 -69 -87 -5 vhcurveto
            return
          </CharString>
          <CharString index="108">
            50 vhcurveto
            -58 callgsubr
            return
          </CharString>
          <CharString index="109">
            199 -133 133 return
          </CharString>
          <CharString index="110">
            44 callgsubr
            715 -20 -35 callsubr
            return
          </CharString>
          <CharString index="111">
            rmoveto
            -177 -60 177 -176 60 176 175 60 -175 176 -60 hlineto
            return
          </CharString>
          <CharString index="112">
            rmoveto
            82 23 49 10 5 hvcurveto
            -3 callgsubr
            return
          </CharString>
          <CharString index="113">
            hstemhm
            58 100 192 20 0 99 return
          </CharString>
          <CharString index="114">
            -61 9 62 -28 70 hhcurveto
            120 return
          </CharString>
          <CharString index="115">
            rmoveto
            -100 -750 100 228 hlineto
            7 callsubr
            68 86 return
          </CharString>
          <CharString index="116">
            7 callgsubr
            -10 -20 hstemhm
            64 99 0 54 callsubr
            return
          </CharString>
          <CharString index="117">
            -86 73 -52 77 84 82 69 161 vhcurveto
            return
          </CharString>
          <CharString index="118">
            41 -41 220 -198 116 -16 176 -94 94 -81 81 -4 20 return
          </CharString>
          <CharString index="119">
            107 -37 157 3 -137 vvcurveto
            endchar
          </CharString>
          <CharString index="120">
            -36 callsubr
            vhcurveto
            return
          </CharString>
          <CharString index="121">
            -7 callsubr
            -20 callsubr
            return
          </CharString>
          <CharString index="122">
            146 -99 -463 99 302 vlineto
            return
          </CharString>
          <CharString index="123">
            -43 -42 -26 -35 -27 -7 2 -36 15 7 0 7 1 hvcurveto
            7 return
          </CharString>
          <CharString index="124">
            1 21 -6 -21 273 20 13 21 246 20 7 -20 hstemhm
            return
          </CharString>
          <CharString index="125">
            347 -6 232 -20 20 298 172 -20 20 30 20 return
          </CharString>
          <CharString index="126">
            49 52 -21 40 hhcurveto
            71 40 68 37 27 -22 33 -39 hvcurveto
            return
          </CharString>
          <CharString index="127">
            vvcurveto
            -20 -18 -12 -19 -21 -23 14 35 49 47 37 52 vhcurveto
            return
          </CharString>
          <CharString index="128">
            -159 -96 -16 -38 -68 -36 41 46 36 22 30 42 vhcurveto
            return
          </CharString>
          <CharString index="129">
            hstemhm
            11 20 140 22 -22 95 return
          </CharString>
          <CharString index="130">
            rmoveto
            -60 412 60 vlineto
            return
          </CharString>
          <CharString index="131">
            103 0 20 177 124 202 20 131 22 return
          </CharString>
          <CharString index="132">
            hlineto
            412 322 rmoveto
            -59 -9 -251 -138 vhcurveto
            return
          </CharString>
          <CharString index="133">
            -13 -10 2 4 -19 vhcurveto
            -24 vlineto
            -4 17 18 -2 return
          </CharString>
          <CharString index="134">
            551 2 callsubr
            hstemhm
            24 141 return
          </CharString>
          <CharString index="135">
            551 133 -133 199 hstemhm
            29 141 return
          </CharString>
          <CharString index="136">
            13 10 -2 -4 19 vhcurveto
            24 vlineto
            4 -17 -18 2 return
          </CharString>
          <CharString index="137">
            -250 246 -206 -21 207 20 -19 -21 return
          </CharString>
          <CharString index="138">
            -592 rmoveto
            38 hlineto
            393 779 rlineto
            -38 hlineto
            return
          </CharString>
          <CharString index="139">
            -5 -9 20 235 20 250 20 150 21 return
          </CharString>
          <CharString index="140">
            -20 hstemhm
            64 100 -100 119 return
          </CharString>
          <CharString index="141">
            -20 20 hstemhm
            return
          </CharString>
          <CharString index="142">
            239 -163 rmoveto
            -82 -10 -151 -100 vhcurveto
            return
          </CharString>
          <CharString index="143">
            -194 118 -49 65 51 58 31 36 47 return
          </CharString>
          <CharString index="144">
            hstemhm
            47 66 -44 44 216 136 -22 44 return
          </CharString>
          <CharString index="145">
            -239 163 rmoveto
            82 10 151 100 vhcurveto
            return
          </CharString>
          <CharString index="146">
            hlineto
            81 212 rlineto
            -67 hlineto
            -81 -212 rlineto
            return
          </CharString>
          <CharString index="147">
            124 4 callgsubr
            return
          </CharString>
          <CharString index="148">
            34 -7 -20 -32 callsubr
            hvcurveto
            return
          </CharString>
          <CharString index="149">
            -64 -64 -39 -64 -49 37 -17 26 21 32 return
          </CharString>
          <CharString index="150">
            141 48 100 -100 119 293 100 return
          </CharString>
          <CharString index="151">
            107 112 107 return
          </CharString>
          <CharString index="152">
            300 rmoveto
            return
          </CharString>
          <CharString index="153">
            -276 -147 60 750 60 hstemhm
            return
          </CharString>
          <CharString index="154">
            41 5 18 return
          </CharString>
          <CharString index="155">
            -24 vlineto
            4 19 10 2 13 hhcurveto
            return
          </CharString>
          <CharString index="156">
            -34 21 32 15 7 11 11 10 return
          </CharString>
          <CharString index="157">
            24 vlineto
            -4 -19 -10 -2 -13 hhcurveto
            return
          </CharString>
          <CharString index="158">
            -250 20 153 20 -19 -21 return
          </CharString>
          <CharString index="159">
            -79 -108 -89 -85 -42 27 -47 return
          </CharString>
          <CharString index="160">
            -26 callgsubr
            vhcurveto
            return
          </CharString>
          <CharString index="161">
            20 192 100 return
          </CharString>
          <CharString index="162">
            4 hhcurveto
            4 return
          </CharString>
        <CharString name=".notdef">
          -336 endchar
        </CharString>
        <CharString name="A">
          -15 callgsubr
          hstemhm
          -40 20 hintmask 10110000
          -102 callgsubr
          hintmask 01110000
          -91 callgsubr
          hintmask 10110000
          -100 callsubr
          endchar
        </CharString>
        <CharString name="AE">
          295 -5 26 0 -21 216 25 -8 21 101 25 291 25 hstemhm
          12 23 470 88 hintmask 10011111
          276 121 rmoveto
          -59 -22 -53 -41 -57 hhcurveto
          -66 -43 56 60 39 18 57 51 25 17 -13 -17 17 hvcurveto
          -7 7 -1 -1 2 hhcurveto
          5 6 6 6 2 -1 2 -1 2 hvcurveto
          24 -12 -28 17 -33 hhcurveto
          -56 -39 -47 -64 -71 47 -77 85 58 68 35 73 28 hvcurveto
          hintmask 01101111
          43 113 rlineto
          164 -216 300 25 -212 330 162 25 -162 291 212 25 -313 hlineto
          16 -25 rmoveto
          -152 -3 -123 -155 vvcurveto
          -155 hlineto
          endchar
        </CharString>
        <CharString name="Aacute">
          -92 callsubr
          266 712 -82 callsubr
        </CharString>
        <CharString name="Acircumflex">
          222 -11 49 -30 221 -216 -21 709 -20 246 55 callgsubr
          hintmask 01011100
          205 -103 callsubr
          hvcurveto
          hintmask 10011100
          -43 callgsubr
          vhcurveto
          -57 callsubr
          hintmask 00111100
          -91 callgsubr
          hintmask 10011100
          -100 callsubr
          143 692 -89 callsubr
        </CharString>
        <CharString name="Adieresis">
          -15 callgsubr
          98 106 hstemhm
          -40 20 269 44 callsubr
          hintmask 10111110
          -102 callgsubr
          hintmask 01111110
          -91 callgsubr
          hintmask 10111110
          -100 callsubr
          -17 597 -106 callgsubr
        </CharString>
        <CharString name="Agrave">
          -92 callsubr
          127 592 -67 callgsubr
        </CharString>
        <CharString name="Aring">
          224 -11 49 -25 -21 709 -20 112 24 hstemhm
          -39 20 359 25 100 24 hintmask 10111110
          206 -105 callsubr
          hintmask 01111110
          -91 callgsubr
          hintmask 10111110
          -19 -9 -10 -18 -25 hhcurveto
          -18 -23 9 23 -9 hvcurveto
          -226 600 rlineto
          32 7 26 30 36 vvcurveto
          49 callgsubr
          -35 24 -30 33 -8 vhcurveto
          -24 -128 -44 callsubr
          98 508 rmoveto
          50 callgsubr
          -26 -20 -22 -25 -2 vhcurveto
          5 -3 -3 3 -2 hhcurveto
          -2 -2 -2 -5 -3 hvcurveto
          -22 4 -18 21 24 vvcurveto
          endchar
        </CharString>
        <CharString name="Atilde">
          -15 callgsubr
          73 38 -18 -20 153 55 callgsubr
          260 20 303 20 hintmask 1011011110000000
          -102 callgsubr
          hintmask 0111011110000000
          -91 callgsubr
          hintmask 1010111110000000
          -100 callsubr
          148 619 -107 callgsubr
          -49 callgsubr
          hvcurveto
          hintmask 1011011110000000
          -45 callgsubr
          vhcurveto
          endchar
        </CharString>
        <CharString name="B">
          165 8 callgsubr
          210 20 159 26 109 172 hstemhm
          -27 20 169 101 -101 120 192 100 -10 101 hintmask 1011111001000000
          428 -10 rmoveto
          98 139 55 166 156 -124 48 -81 hvcurveto
          hintmask 0111111010000000
          55 21 59 35 87 vvcurveto
          122 -117 16 -111 vhcurveto
          -259 hlineto
          -9 callsubr
          -47 -37 22 -39 46 45 28 37 16 9 -4 1 -2 hvcurveto
          -12 -7 -44 -44 hhcurveto
          -31 -21 25 36 37 26 37 67 hvcurveto
          76 -678 101 123 hlineto
          hintmask 1011110110000000
          -75 12 53 -58 100 hhcurveto
          -146 151 rmoveto
          25 14 44 49 vhcurveto
          32 -6 callsubr
          12 -33 15 -27 hvcurveto
          hintmask 1011111001000000
          -34 -43 -23 -53 -6 hvcurveto
          165 vlineto
          43 72 53 27 40 hhcurveto
          53 83 -51 -129 -75 -28 -124 -118 hvcurveto
          hintmask 1011110110000000
          -101 -35 92 39 hvcurveto
          hintmask 1011111010000000
          -19 202 rmoveto
          335 73 vlineto
          75 63 -9 -112 -38 -7 -68 -81 -43 hvcurveto
          endchar
        </CharString>
        <CharString name="C">
          45 -10 20 420 130 124 21 hstemhm
          48 100 226 177 -20 20 hintmask 11110100
          515 89 rmoveto
          -43 -20 -64 -36 -58 hhcurveto
          -170 -55 162 179 152 77 181 135 76 95 -58 -95 -56 -40 -26 -34 -34 -30 22 33 hvcurveto
          32 29 8 8 vvcurveto
          6 -4 2 -4 vhcurveto
          hintmask 11111000
          -22 -18 -35 -24 20 callgsubr
          -185 -105 -194 -164 -153 85 -204 228 88 60 46 54 26 hvcurveto
          endchar
        </CharString>
        <CharString name="Ccedilla">
          36 -194 28 126 61 -21 21 401 22 223 30 hstemhm
          49 100 214 21 5 46 79 26 hintmask 1101111110000000
          476 99 rmoveto
          -43 -20 -36 -35 -58 hhcurveto
          -73 -140 55 246 162 61 183 139 73 92 -51 -93 -56 -34 -23 -34 -34 -28 22 30 14 6 11 11 10 hvcurveto
          -59 callgsubr
          -12 -4 -21 -22 -32 vvcurveto
          20 callgsubr
          -181 -97 -195 -173 -198 127 -101 117 -24 vhcurveto
          -46 -28 callgsubr
          hintmask 1011111110000000
          20 vlineto
          86 1 59 45 26 54 rrcurveto
          endchar
        </CharString>
        <CharString name="D">
          185 -9 20 189 20 304 172 hstemhm
          -27 20 -20 43 callsubr
          hintmask 11101101
          262 hmoveto
          114 vlineto
          -78 9 76 -45 88 hhcurveto
          151 88 165 172 196 -114 172 -199 hvcurveto
          -274 hlineto
          10 callgsubr
          3 -44 -51 hhcurveto
          hintmask 11110101
          -36 -15 30 31 37 26 36 67 hvcurveto
          76 -678 25 callsubr
          hintmask 11110011
          -90 -56 59 61 23 13 46 50 -11 callgsubr
          hintmask 11110101
          -35 -42 -23 -54 -6 hvcurveto
          533 73 vlineto
          170 69 -192 -163 hvcurveto
          endchar
        </CharString>
        <CharString name="E">
          -47 callsubr
          -37 callgsubr
          hintmask 1001011000110000
          -65 callsubr
          hintmask 1100100101010000
          -70 callgsubr
          hintmask 1100101001010000
          -101 callsubr
          hintmask 1010010011010000
          -86 callsubr
          endchar
        </CharString>
        <CharString name="Eacute">
          -99 callgsubr
          77 261 -82 callsubr
        </CharString>
        <CharString name="Ecircumflex">
          26 11 -21 292 136 -118 88 -88 100 -12 30 116 172 -154 134 20 48 173 -20 -37 callgsubr
          hintmask 1100001111000110
          -65 callsubr
          hintmask 1001010010101010
          -70 callgsubr
          hintmask 1010010011001010
          -94 callgsubr
          hintmask 1100010011001010
          -81 callgsubr
          hintmask 1000101110011010
          -86 callsubr
          -48 241 -89 callsubr
        </CharString>
        <CharString name="Edieresis">
          -47 callsubr
          73 106 hstemhm
          44 14 callgsubr
          -58 107 109 110 11 20 28 20 hintmask 1001011100011100
          -65 callsubr
          34 callgsubr
          hvcurveto
          hintmask 1100101010011100
          -77 callsubr
          vhcurveto
          hintmask 1100101100011100
          -101 callsubr
          hintmask 1010011001011100
          -86 callsubr
          hintmask 1100101000111100
          -207 146 -106 callgsubr
        </CharString>
        <CharString name="Egrave">
          -99 callgsubr
          -29 141 -67 callgsubr
        </CharString>
        <CharString name="Eth">
          185 -9 20 189 20 103 60 141 -10 callgsubr
          hstemhm
          -27 22 -22 43 callsubr
          hintmask 1111101101000000
          262 hmoveto
          114 vlineto
          -78 10 84 -45 79 hhcurveto
          151 88 165 172 196 -114 172 -199 hvcurveto
          -274 hlineto
          -104 callsubr
          hintmask 1111110101000000
          -39 -14 31 29 37 24 35 67 hvcurveto
          76 -293 -88 -60 88 -324 25 callsubr
          hintmask 1111110011000000
          -70 -76 65 55 23 13 46 50 -11 callgsubr
          hintmask 1111110101000000
          -35 -42 -23 -54 -6 hvcurveto
          180 114 60 -114 292 73 vlineto
          170 69 -191 -163 hvcurveto
          endchar
        </CharString>
        <CharString name="Euro">
          31 0 20 -20 101 113 60 106 60 160 97 34 callsubr
          93 99 hintmask 01111010
          47 440 rmoveto
          -60 46 vlineto
          -1 -16 0 -16 -15 vvcurveto
          -21 1 -20 2 -18 vhcurveto
          -48 -60 57 hlineto
          -148 33 96 -66 104 hhcurveto
          74 66 33 68 49 hvcurveto
          -86 hlineto
          hintmask 10110110
          -50 -27 -37 -31 -39 hhcurveto
          -63 -52 79 115 -21 hvcurveto
          258 60 -265 hlineto
          -1 16 -1 17 18 vvcurveto
          17 0 18 2 20 vhcurveto
          265 60 -259 hlineto
          115 15 41 122 84 hhcurveto
          hintmask 10111010
          45 35 -35 -42 19 hvcurveto
          89 hlineto
          59 -38 -58 38 -85 hhcurveto
          -149 -74 -119 -138 -24 hvcurveto
          endchar
        </CharString>
        <CharString name="F">
          132 -10 21 -21 242 95 20 138 20 -20 110 -58 20 128 20 -2 26 hstemhm
          39 20 -5 20 -20 139 50 100 154 20 126 20 hintmask 1011010110011100
          518 703 rmoveto
          67 58 -41 -66 -61 -40 -30 -35 -14 -37 7 38 hvcurveto
          31 25 -3 10 vvcurveto
          hintmask 1010100110011100
          5 -5 2 -5 -21 -14 -23 -23 -34 29 -30 36 47 54 39 72 69 -43 64 -92 -70 -67 -34 -39 -49 vhcurveto
          -32 -25 -11 -8 -51 -36 rrcurveto
          hintmask 1011011001011100
          -20 -28 -30 -10 -32 hhcurveto
          -60 -24 35 37 36 22 20 33 hvcurveto
          45 -3 -37 15 hhcurveto
          hintmask 1011011000111100
          3 4 1 8 25 -24 23 -48 -46 -21 -38 -36 -48 37 -46 70 30 26 13 14 26 hvcurveto
          -430 vlineto
          -79 -35 -44 -45 vhcurveto
          hintmask 0111010110011100
          -50 -54 53 71 42 17 37 43 hvcurveto
          31 -5 -22 -48 callgsubr
          -27 -52 35 callgsubr
          hvcurveto
          157 83 vlineto
          33 32 0 11 8 -20 1 -45 hvcurveto
          -83 285 hlineto
          59 57 74 12 44 hhcurveto
          endchar
        </CharString>
        <CharString name="G">
          70 30 callsubr
          135 20 311 20 244 20 hstemhm
          53 100 214 20 45 99 -7 20 hintmask 1000111111000000
          432 379 rmoveto
          -195 vlineto
          -47 -32 -41 -26 -46 hhcurveto
          -88 -72 122 152 94 28 207 165 hvcurveto
          hintmask 1000111110100000
          89 89 -74 -88 -57 -40 -25 -35 -35 -27 24 28 hvcurveto
          28 29 10 13 vvcurveto
          5 -5 2 -5 -20 -19 -30 -30 -48 49 -22 34 39 55 28 78 102 -95 76 -125 -199 -72 -181 -132 -167 116 -135 141 vhcurveto
          hintmask 0110111111000000
          53 45 35 29 24 hvcurveto
          -197 vlineto
          22 callgsubr
          hintmask 0101111111000000
          42 callgsubr
          hintmask 1000111111000000
          26 callgsubr
          128 63 171 vhcurveto
          395 vlineto
          endchar
        </CharString>
        <CharString name="H">
          195 -110 20 38 -21 63 21 -21 242 122 20 150 -10 callgsubr
          hstemhm
          20 -26 callsubr
          48 100 230 101 hintmask 1110111011100000
          539 696 rmoveto
          -322 -230 322 -92 callgsubr
          hintmask 1110111101100000
          -51 callgsubr
          76 -542 hlineto
          -79 -35 -44 -45 -50 -55 53 71 42 18 37 43 vhcurveto
          32 -6 -22 -32 callsubr
          hvcurveto
          hintmask 1101111101100000
          21 -28 11 -17 -23 -56 35 callgsubr
          vhcurveto
          184 230 -355 -4 callsubr
          738 vlineto
          endchar
        </CharString>
        <CharString name="I">
          -183 21 -21 524 1 callgsubr
          hintmask 11101100
          -85 callsubr
          hintmask 11110100
          -52 callgsubr
          hlineto
          endchar
        </CharString>
        <CharString name="Iacute">
          -27 callsubr
          251 -20 -32 callgsubr
          hintmask 11110110
          -85 callsubr
          hintmask 11111010
          -52 callgsubr
          hlineto
          172 947 -82 callsubr
        </CharString>
        <CharString name="Icircumflex">
          -27 callsubr
          0 58 173 -20 -32 callgsubr
          hintmask 11101011
          -85 callsubr
          hintmask 11101101
          -52 callgsubr
          hlineto
          45 927 rmoveto
          hintmask 11011101
          -90 callsubr
        </CharString>
        <CharString name="Idieresis">
          -27 callsubr
          83 106 -15 callsubr
          -64 107 5 100 7 107 hintmask 1111010110000000
          -85 callsubr
          hintmask 1111101110000000
          -52 callgsubr
          hlineto
          -112 832 -106 callgsubr
        </CharString>
        <CharString name="Igrave">
          -27 callsubr
          251 -20 -32 callgsubr
          hintmask 11110110
          -85 callsubr
          hintmask 11111010
          -52 callgsubr
          hlineto
          15 827 -67 callgsubr
        </CharString>
        <CharString name="J">
          -96 30 callsubr
          568 -10 callgsubr
          hstemhm
          -44 40 callsubr
          48 100 hintmask 0110111010000000
          249 -42 rmoveto
          22 callgsubr
          hintmask 0101111010000000
          42 callgsubr
          hintmask 1000111010000000
          26 callgsubr
          129 63 171 vhcurveto
          712 -175 vlineto
          hintmask 1000110110000000
          -104 callsubr
          hintmask 1000111010000000
          -49 callsubr
          hlineto
          endchar
        </CharString>
        <CharString name="K">
          207 -10 23 8 -21 524 1 callgsubr
          hintmask 10110110
          618 -10 5 callsubr
          -51 -48 -115 84 368 -219 hhcurveto
          -9 -11 -1 -1 -10 hvcurveto
          160 187 rlineto
          104 88 61 5 36 callgsubr
          -67 -54 -61 -52 hvcurveto
          -250 -292 rlineto
          407 -92 callgsubr
          hintmask 01111010
          -52 callgsubr
          100 257 hlineto
          89 105 rlineto
          hintmask 10111010
          -23 144 -74 -349 197 hhcurveto
          endchar
        </CharString>
        <CharString name="L">
          -10 -236 20 121 -21 27 20 106 20 467 -10 callgsubr
          hstemhm
          17 -26 callsubr
          49 99 125 112 -20 20 hintmask 1111110111000000
          433 -216 rmoveto
          -87 -40 106 85 hvcurveto
          721 -92 callgsubr
          hintmask 1111111011000000
          -51 callgsubr
          77 -641 hlineto
          13 -26 -28 5 callgsubr
          -79 75 19 -155 133 hhcurveto
          81 26 57 40 40 -27 30 -32 -24 -29 -16 -21 -6 2 -4 5 hvcurveto
          12 -9 27 34 hhcurveto
          hintmask 1111111010100000
          36 12 -29 -23 -44 -44 -31 -46 hvcurveto
          endchar
        </CharString>
        <CharString name="M">
          350 -108 20 38 -21 65 232 -214 -21 215 20 298 -10 callgsubr
          hstemhm
          -33 40 callsubr
          51 20 413 101 hintmask 1110011011100000
          683 694 rmoveto
          -152 -517 -152 519 rlineto
          -194 hlineto
          -104 callsubr
          hintmask 1101111101100000
          -51 callgsubr
          79 -478 hlineto
          -122 -79 -57 callgsubr
          hintmask 1110011101100000
          10 callsubr
          435 vlineto
          195 -655 rlineto
          hintmask 1101111101100000
          -6 2 4 -7 6 hhcurveto
          6 4 6 5 1 hvcurveto
          195 661 rlineto
          -662 -4 callsubr
          734 vlineto
          endchar
        </CharString>
        <CharString name="N">
          18 callsubr
          hstemhm
          -33 40 callsubr
          50 21 339 22 167 124 -20 20 hintmask 0110110111000000
          262 198 rmoveto
          -122 -78 -57 callgsubr
          hintmask 1010110110100000
          10 callsubr
          413 vlineto
          338 -630 rlineto
          -2 2 3 -11 8 hhcurveto
          6 4 6 5 hvcurveto
          507 vlineto
          189 74 25 73 65 59 -42 -74 -41 -19 -36 -41 vhcurveto
          -32 6 21 -12 hhcurveto
          hintmask 1010101111000000
          -56 callgsubr
          hintmask 1001110111000000
          -51 callgsubr
          79 hlineto
          endchar
        </CharString>
        <CharString name="Ntilde">
          18 callsubr
          8 -20 callgsubr
          -33 40 callsubr
          50 21 13 20 306 22 167 124 -20 20 hintmask 1010110101011110
          470 854 -107 callgsubr
          hintmask 0110101011011110
          -79 callgsubr
          -208 -656 rmoveto
          -122 -78 -57 callgsubr
          hintmask 1010110101011101
          10 callsubr
          413 vlineto
          338 -630 rlineto
          -2 2 3 -11 8 hhcurveto
          6 4 6 5 hvcurveto
          507 vlineto
          189 74 25 73 65 59 -42 -74 -41 -19 -36 -41 vhcurveto
          -32 6 21 -12 hhcurveto
          hintmask 1010110100111110
          -56 callgsubr
          hintmask 1001110101011110
          -51 callgsubr
          79 hlineto
          endchar
        </CharString>
        <CharString name="O">
          -33 callgsubr
          -101 callgsubr
          endchar
        </CharString>
        <CharString name="OE">
          275 0 20 0 -21 292 137 96 20 133 20 -1 -20 hstemhm
          54 100 136 14 callgsubr
          95 20 43 141 -20 20 28 20 hintmask 1011011100101100
          585 676 rmoveto
          71 59 -32 -54 -32 -20 -14 -31 hvcurveto
          -53 6 43 -16 hhcurveto
          hintmask 1011011100110100
          34 callgsubr
          -58 callsubr
          -40 -52 -11 -22 -45 hvcurveto
          hintmask 1011101100110100
          22 -31 -28 12 -53 hhcurveto
          -247 -20 -257 -101 -167 55 -172 204 43 23 7 20 31 hvcurveto
          hintmask 0111101010110100
          -19 45 51 -9 50 hhcurveto
          -52 callsubr
          -34 -46 -34 -21 14 -29 21 5 5 2 4 hvcurveto
          10 -25 -1 34 vvcurveto
          -18 callgsubr
          -108 -112 -38 -78 -92 -91 52 125 159 148 20 84 10 vhcurveto
          15 2 4 13 8 vvcurveto
          13 -10 6 -12 vhcurveto
          hintmask 1011011001110100
          -55 1 -128 3 116 vvcurveto
          84 66 44 83 vhcurveto
          -262 -656 rmoveto
          -128 -41 134 171 hvcurveto
          hintmask 1011101010110100
          130 24 222 146 27 38 -8 -21 17 vhcurveto
          -40 -26 -29 -37 -47 vvcurveto
          -77 77 -55 88 -6 vhcurveto
          hintmask 1011101100110100
          -108 -38 -104 -64 -110 vvcurveto
          -67 37 -48 54 -31 vhcurveto
          -18 -17 -20 -4 -21 hhcurveto
          endchar
        </CharString>
        <CharString name="Oacute">
          -88 callgsubr
          344 616 -82 callsubr
        </CharString>
        <CharString name="Ocircumflex">
          -10 20 264 20 0 122 0 20 250 20 0 48 173 -20 hstemhm
          48 100 190 20 184 106 hintmask 1010101111000000
          -105 callgsubr
          hvcurveto
          hintmask 1101011111000000
          -97 callsubr
          vhcurveto
          -79 callsubr
          209 596 -89 callsubr
        </CharString>
        <CharString name="Odieresis">
          -33 callgsubr
          73 106 hstem
          48 100 38 107 45 20 47 107 30 -104 callgsubr
          38 501 -106 callgsubr
        </CharString>
        <CharString name="Ograve">
          -88 callgsubr
          200 496 -67 callgsubr
        </CharString>
        <CharString name="Oslash">
          55 -28 -21 49 20 677 -20 53 -20 hstem
          70 100 255 101 vstem
          65 -49 rmoveto
          68 hlineto
          47 94 rlineto
          -28 33 41 -17 47 hhcurveto
          110 115 137 184 85 -14 117 -50 81 hvcurveto
          64 126 rlineto
          -68 hlineto
          -38 -75 rlineto
          26 -30 -38 16 -47 hhcurveto
          -186 -49 -240 -136 -79 23 -85 44 -63 hvcurveto
          33 215 rmoveto
          149 14 220 126 40 26 -32 -46 17 vhcurveto
          -212 -419 rlineto
          -7 40 -4 44 44 vvcurveto
          255 hmoveto
          -161 -51 -128 -78 -39 -30 30 47 -21 vhcurveto
          208 412 rlineto
          11 -74 0 -79 -47 vvcurveto
          endchar
        </CharString>
        <CharString name="Otilde">
          -33 callgsubr
          48 -20 callgsubr
          48 100 30 20 140 20 143 20 21 106 hintmask 1111101011111000
          -107 callsubr
          204 523 -107 callgsubr
          hintmask 1111010111111000
          -79 callgsubr
          endchar
        </CharString>
        <CharString name="P">
          120 0 249 -19 240 -20 20 54 1 callgsubr
          -100 117 268 86 hintmask 1011101101000000
          87 696 rmoveto
          -104 callsubr
          hintmask 1011110101000000
          -51 callgsubr
          76 -676 100 345 hlineto
          hintmask 0101110101000000
          -77 13 81 -38 61 hhcurveto
          141 75 109 113 120 -85 124 -179 hvcurveto
          -25 -226 rmoveto
          -31 -41 -20 -55 -10 hvcurveto
          281 121 vlineto
          108 56 -122 -114 hvcurveto
          hintmask 1011110011000000
          -99 -42 -92 -88 -86 -52 70 59 36 19 36 45 vhcurveto
          31 -6 callsubr
          12 -33 15 -26 hvcurveto
          endchar
        </CharString>
        <CharString name="Q">
          158 -237 21 192 20 -20 44 -43 -21 318 20 122 20 270 -20 hstemhm
          48 100 135 99 -44 20 184 106 7 20 hintmask 1100111110110000
          48 327 rmoveto
          -196 125 -95 110 -28 vhcurveto
          -14 vlineto
          -171 127 -60 93 100 72 70 73 55 -32 35 -45 -21 -26 -12 -20 vhcurveto
          hintmask 1001111110110000
          -5 2 -3 4 vhcurveto
          hintmask 1010111110110000
          11 -4 20 32 hhcurveto
          42 17 -36 -37 -83 -93 -36 -40 -46 -94 45 139 hvcurveto
          34 vlineto
          114 15 152 93 219 vvcurveto
          185 -108 192 -189 -191 -112 -195 -184 vhcurveto
          100 22 rmoveto
          176 34 162 163 134 63 -113 -124 -114 -54 -42 -54 vhcurveto
          hintmask 1010111101110000
          -33 callsubr
          -55 callsubr
          1 -11 0 -11 -12 vvcurveto
          -199 -61 -99 -143 -127 -69 79 250 vhcurveto
          endchar
        </CharString>
        <CharString name="R">
          147 -111 20 28 -21 105 -21 320 224 -20 1 callgsubr
          -100 119 227 101 -73 89 hintmask 1110110110100000
          87 696 rmoveto
          -104 callsubr
          hintmask 1111011010100000
          -51 callgsubr
          76 -676 100 429 hlineto
          4 -68 44 -38 83 -3 rrcurveto
          72 -2 43 -2 -235 vvcurveto
          -78 vlineto
          -76 70 -38 72 35 13 9 9 4 -2 5 -6 vhcurveto
          -7 -5 -7 -20 hhcurveto
          -39 -10 25 23 hvcurveto
          210 vlineto
          85 -46 72 -102 2 vhcurveto
          hintmask 1111011010010000
          79 13 85 45 121 vvcurveto
          128 -96 63 -180 vhcurveto
          4 -146 rmoveto
          -33 -56 -21 -82 -2 hvcurveto
          229 101 vlineto
          118 55 -57 -125 -130 -59 -25 -66 hvcurveto
          hintmask 1111011001100000
          -97 -33 54 56 61 38 20 33 -11 callgsubr
          endchar
        </CharString>
        <CharString name="S">
          32 callsubr
          37 callsubr
          hintmask 11111001
          443 172 -72 callsubr
          hintmask 11110110
          -12 callgsubr
          hintmask 11111001
          12 callsubr
        </CharString>
        <CharString name="Scaron">
          32 callsubr
          -21 114 37 callsubr
          hintmask 1110110010000000
          295 19 callgsubr
          96 -628 -72 callsubr
          hintmask 1111001100000000
          -12 callgsubr
          hintmask 1111010010000000
          12 callsubr
        </CharString>
        <CharString name="T">
          14 -21 callsubr
          hstemhm
          5 -26 callsubr
          99 99 hintmask 11101100
          344 hmoveto
          676 200 20 -425 -94 callsubr
          hintmask 11110100
          -51 callgsubr
          127 -676 hlineto
          endchar
        </CharString>
        <CharString name="Thorn">
          15 22 -21 139 20 411 29 151 -20 hstemhm
          94 100 -100 119 210 100 hintmask 11111010
          194 751 8 callsubr
          153 189 -103 32 -63 -59 -58 -29 -34 -46 hvcurveto
          229 -144 -25 callsubr
          251 vlineto
          32 42 49 29 37 hhcurveto
          50 51 -55 -123 hvcurveto
          endchar
        </CharString>
        <CharString name="U">
          -54 callsubr
          -50 callgsubr
          hintmask 1100110111110000
          -62 callgsubr
          hintmask 1001111011110000
          9 -4 1 -2 vhcurveto
          24 callgsubr
          -40 -15 31 29 -60 callgsubr
          75 -465 hlineto
          -183 127 -37 93 105 80 52 173 vhcurveto
          hintmask 1010111011101000
          -81 callsubr
          hintmask 1100111011110000
          -93 callsubr
          endchar
        </CharString>
        <CharString name="Uacute">
          -54 callsubr
          -20 201 -50 callgsubr
          hintmask 1100110011111000
          -62 callgsubr
          hintmask 1001110101111000
          9 -4 1 -2 vhcurveto
          24 callgsubr
          -40 -15 31 29 -60 callgsubr
          75 -465 hlineto
          -183 127 -37 93 105 80 52 173 vhcurveto
          hintmask 1010110101110100
          -81 callsubr
          hintmask 1100110101111000
          -93 callsubr
          hintmask 1100101101111000
          257 251 -82 callsubr
        </CharString>
        <CharString name="Ucircumflex">
          -54 callsubr
          161 -91 callsubr
          144 231 -89 callsubr
        </CharString>
        <CharString name="Udieresis">
          -54 callsubr
          13 106 hstemhm
          -28 -26 callsubr
          47 101 -18 107 112 46 -20 -6 callgsubr
          hintmask 1100111011010110
          -62 callgsubr
          hintmask 1001111101010110
          9 -4 1 -2 vhcurveto
          24 callgsubr
          -40 -15 31 29 -60 callgsubr
          75 -465 hlineto
          -183 127 -37 93 105 80 52 173 vhcurveto
          hintmask 1010111101001101
          -81 callsubr
          hintmask 1100111101001110
          -93 callsubr
          hintmask 1100111100110110
          -18 136 -106 callgsubr
        </CharString>
        <CharString name="Ugrave">
          -54 callsubr
          181 -91 callsubr
          107 131 -67 callgsubr
        </CharString>
        <CharString name="V">
          145 -10 20 433 20 14 -20 30 20 153 46 34 callsubr
          -2 20 187 94 -71 71 -71 99 49 20 222 20 hintmask 1101011010110000
          345 -10 rmoveto
          172 121 377 174 108 -49 57 -62 -74 -77 -51 -82 -46 25 -40 50 hvcurveto
          -64 callgsubr
          56 49 62 73 68 32 -58 -85 -157 -120 -376 -146 -46 -7 49 56 56 7 60 12 101 hvcurveto
          hintmask 1101101001110000
          5 42 4 38 40 vvcurveto
          159 -64 95 -78 52 callsubr
          46 16 38 6 17 vhcurveto
          hintmask 1011101100110000
          -3 callsubr
          vhcurveto
          hintmask 1101101010110000
          -64 callsubr
          21 49 57 80 51 50 52 -70 -147 hvcurveto
          hintmask 1101101100110000
          -98 -23 -115 -58 vvcurveto
          -94 60 -88 80 vhcurveto
          endchar
        </CharString>
        <CharString name="W">
          378 -10 20 423 20 14 -20 40 20 143 46 10 -20 hstemhm
          1 20 167 83 -40 40 -40 99 178 76 -20 20 261 20 hintmask 1101101100101000
          508 45 callsubr
          -104 -3 -70 -186 -100 hhcurveto
          -46 -18 54 42 hvcurveto
          hintmask 1101101001101000
          77 59 147 133 vvcurveto
          hintmask 1101101100101000
          135 -60 98 -82 52 callsubr
          44 15 47 callsubr
          vhcurveto
          hintmask 1011101100101000
          -3 callsubr
          vhcurveto
          hintmask 1101101010101000
          -64 callsubr
          20 49 58 81 49 51 52 -65 -133 hvcurveto
          hintmask 1101011100011000
          -120 -43 -93 -71 vvcurveto
          -78 52 -100 89 73 62 72 95 39 vhcurveto
          -87 9 61 -80 77 hhcurveto
          147 68 308 153 152 -66 103 -86 -79 -70 -46 -86 -47 25 -40 50 hvcurveto
          -64 callgsubr
          69 44 49 79 86 52 -111 -123 -145 -64 -297 -122 -52 -19 68 79 hvcurveto
          hintmask 1101101100101000
          58 10 41 38 0 3 0 4 vvcurveto
          endchar
        </CharString>
        <CharString name="X">
          239 -3 40 -16 -21 183 20 290 20 146 37 hstemhm
          26 20 680 20 hintmask 10111110
          410 396 rmoveto
          -130 206 rlineto
          44 -28 -35 50 -49 hhcurveto
          -64 -78 -23 -91 -44 28 -45 44 14 47 callsubr
          -66 callsubr
          46 23 32 30 38 41 -77 -54 35 hvcurveto
          138 -213 2 -3 -122 -177 -84 -108 -60 -2 -37 -1 rlinecurve
          -8 -4 -5 -9 -10 4 -3 17 72 69 52 66 51 hvcurveto
          118 172 123 -193 rlineto
          hintmask 01111110
          -44 28 35 -50 49 hhcurveto
          64 78 23 91 44 -28 45 -44 -14 -41 -5 -18 -5 3 -6 4 hvcurveto
          7 9 14 26 hhcurveto
          49 9 -47 -21 hvcurveto
          hintmask 10111110
          -46 -23 -32 -30 -38 -41 77 54 -35 vhcurveto
          -132 203 129 189 rlineto
          107 83 60 2 39 hhcurveto
          8 4 5 10 10 -4 2 -15 -75 -70 -52 -63 -49 hvcurveto
          endchar
        </CharString>
        <CharString name="Y">
          -23 callgsubr
          hstemhm
          -6 20 160 54 callgsubr
          139 103 -27 27 hintmask 1111101101100000
          -96 callsubr
          hintmask 1111011011010000
          -89 callgsubr
          endchar
        </CharString>
        <CharString name="Yacute">
          -23 callgsubr
          261 -20 hstemhm
          -6 20 160 54 callgsubr
          139 103 -27 27 hintmask 1111101110110000
          -96 callsubr
          hintmask 1111011101101000
          -89 callgsubr
          143 717 -82 callsubr
        </CharString>
        <CharString name="Ydieresis">
          -23 callgsubr
          93 106 hstemhm
          -6 20 135 107 -82 54 callgsubr
          29 107 3 103 -27 27 hintmask 1111101101011100
          -96 callsubr
          hintmask 1111011100111010
          -89 callgsubr
          hintmask 1111101110011100
          -197 602 -106 callgsubr
        </CharString>
        <CharString name="Z">
          24 callsubr
          29 callgsubr
          hintmask 11110111
          165 21 rmoveto
          402 652 rlineto
          4 6 6 7 5 vvcurveto
          -16 callgsubr
          hintmask 11111011
          -28 -17 30 31 35 26 35 67 hvcurveto
          271 hlineto
          -402 -651 -22 callgsubr
          359 hlineto
          168 52 88 83 81 -53 69 -82 -80 -17 -58 -18 -23 11 -25 22 5 2 2 7 hvcurveto
          6 -20 -3 34 vvcurveto
          41 35 19 43 73 40 -65 -67 -78 -55 -73 -118 vhcurveto
          endchar
        </CharString>
        <CharString name="Zcaron">
          24 callsubr
          -22 126 29 callgsubr
          hintmask 1110110110000000
          371 19 callgsubr
          -258 -779 rmoveto
          402 652 13 callgsubr
          hintmask 1111001110000000
          -16 callgsubr
          hintmask 1111010110000000
          -28 -17 30 31 35 26 35 67 hvcurveto
          271 hlineto
          -402 -651 -22 callgsubr
          359 hlineto
          168 52 88 83 81 -53 69 -82 -80 -17 -58 -18 -23 11 -25 22 5 2 2 7 hvcurveto
          6 -20 -3 34 vvcurveto
          41 35 19 43 73 40 -65 -67 -78 -55 -73 -118 vhcurveto
          endchar
        </CharString>
        <CharString name="_0141">
          -540 endchar
        </CharString>
        <CharString name="a">
          -45 callsubr
          -29 callgsubr
          hintmask 10110001
          -50 callsubr
          hintmask 01100101
          -88 callsubr
          -78 callgsubr
          hintmask 10101010
          -95 callgsubr
          -83 callsubr
          hintmask 10110001
          -82 callgsubr
          endchar
        </CharString>
        <CharString name="a.ss01">
          -43 8 callgsubr
          273 20 162 21 hstemhm
          24 100 196 119 -100 100 hintmask 10111010
          207 -10 rmoveto
          67 57 30 57 8 hvcurveto
          hintmask 01111010
          -77 100 250 vlineto
          160 -69 66 -131 -110 -46 -47 -52 -27 vhcurveto
          29 hlineto
          45 22 51 33 60 hhcurveto
          79 38 -57 -129 4 hvcurveto
          14 -40 -46 10 -36 hhcurveto
          -66 -127 -32 -118 hvcurveto
          hintmask 10111100
          -102 95 -51 88 vhcurveto
          -83 callgsubr
          14 -5 11 -9 hvcurveto
          24 -20 2 -38 -80 callgsubr
          hintmask 10111010
          -82 callgsubr
          endchar
        </CharString>
        <CharString name="aacute">
          -45 callsubr
          240 -20 -29 callgsubr
          hintmask 1011100010000000
          -50 callsubr
          hintmask 0111001010000000
          -88 callsubr
          -78 callgsubr
          hintmask 1011010100000000
          -95 callgsubr
          -83 callsubr
          hintmask 1011100010000000
          -82 callgsubr
          68 537 -82 callsubr
        </CharString>
        <CharString name="acircumflex">
          -45 callsubr
          -182 163 19 47 173 -20 -29 callgsubr
          hintmask 1010011000100000
          -50 callsubr
          hintmask 0110010010100000
          -88 callsubr
          vhcurveto
          hintmask 1001110100100000
          -98 callgsubr
          hintmask 1010010101000000
          -83 callsubr
          hintmask 1001111000100000
          -82 callgsubr
          -56 517 -89 callsubr
        </CharString>
        <CharString name="acute">
          -331 615 -21 120 -20 hstem
          184 714 -82 callsubr
        </CharString>
        <CharString name="adieresis">
          -45 callsubr
          -19 197 -106 106 -9 callgsubr
          -6 44 callsubr
          -86 119 -100 67 -67 100 hintmask 1010110000010000
          -50 callsubr
          hintmask 0110100100001000
          -88 callsubr
          vhcurveto
          hintmask 1001001000010000
          -98 callgsubr
          hintmask 1010101000100000
          -83 callsubr
          hintmask 1010100010010000
          -82 callgsubr
          -215 422 rmoveto
          -106 callsubr
          hintmask 1010110001000000
          219 hmoveto
          -106 callsubr
          endchar
        </CharString>
        <CharString name="ae">
          234 -5 callgsubr
          -84 20 32 148 -135 135 -21 21 -1 -20 hstemhm
          27 100 -63 100 178 31 -31 103 -103 116 198 86 hintmask 1010001010100100
          240 -10 rmoveto
          73 60 35 67 5 0 6 -1 5 hvcurveto
          -71 39 73 -47 87 hhcurveto
          82 57 28 51 25 hvcurveto
          -21 callgsubr
          -77 callgsubr
          hvcurveto
          hintmask 1001100010100100
          77 -65 75 -108 -56 -58 -25 -45 -44 vhcurveto
          hintmask 1010000101100100
          46 -33 -60 23 -73 hhcurveto
          -68 -113 -20 -58 hvcurveto
          hintmask 1001100001100100
          -52 91 -17 67 2 25 0 12 4 -3 2 -4 vhcurveto
          -29 1 -49 4 41 vvcurveto
          hintmask 1001001010100100
          40 49 23 47 76 6 -61 -54 vhcurveto
          -68 vlineto
          14 -40 -45 10 -36 hhcurveto
          -73 -121 -38 -108 -111 129 -46 84 hvcurveto
          -83 callgsubr
          14 -5 11 -9 hvcurveto
          24 -20 2 -38 -8 vvcurveto
          -43 -55 -33 -50 -71 -50 68 69 50 26 76 72 28 47 -12 -17 42 vhcurveto
          -18 vlineto
          -26 4 -24 7 -23 vhcurveto
          -7 10 -9 7 -9 7 rrcurveto
          225 277 rmoveto
          hintmask 0101100010001100
          69 34 -38 -91 -20 callsubr
          hvcurveto
          hintmask 1001010010100100
          -34 callgsubr
          hintmask 1010001010010100
          -60 callsubr
          endchar
        </CharString>
        <CharString name="agrave">
          -45 callsubr
          -19 220 -29 callgsubr
          hintmask 1010100010000000
          -50 callsubr
          hintmask 0110001010000000
          -88 callsubr
          vhcurveto
          hintmask 1001010010000000
          -98 callgsubr
          hintmask 1010010100000000
          -83 callsubr
          hintmask 1001100010000000
          -82 callgsubr
          -40 378 -67 callgsubr
        </CharString>
        <CharString name="ampersand">
          94 19 -21 23 -21 671 20 hstemhm
          34 99 36 74 184 82 29 22 hintmask 10111110
          336 421 rmoveto
          118 39 55 43 67 vvcurveto
          79 -79 42 -82 -87 -92 -47 -88 -30 11 -33 23 -37 vhcurveto
          29 -47 rlineto
          -83 -29 -115 -71 -122 vvcurveto
          -107 88 -82 146 65 73 16 33 55 vhcurveto
          hintmask 01111110
          31 -47 rlineto
          144 hlineto
          -24 34 -32 45 -38 51 rrcurveto
          11 23 7 25 32 vvcurveto
          95 -63 44 -53 -15 -18 -4 -10 -17 vhcurveto
          -261 -128 rmoveto
          72 39 78 70 36 vhcurveto
          210 -329 rlineto
          -30 -39 -75 -17 -43 hhcurveto
          -105 -57 104 86 hvcurveto
          294 351 rmoveto
          -52 -23 -41 -77 -30 vhcurveto
          -49 78 -35 65 38 vvcurveto
          36 33 19 41 54 56 -32 -81 vhcurveto
          15 -226 rmoveto
          48 48 -41 -87 -25 -4 -16 -6 -16 hvcurveto
          -38 52 -47 67 -39 55 rrcurveto
          6 10 11 5 17 hhcurveto
          endchar
        </CharString>
        <CharString name="aring">
          -45 callsubr
          -19 85 -25 25 100 24 -9 callgsubr
          88 25 100 24 -3 119 -100 100 hintmask 1010111001101000
          -50 callsubr
          hintmask 0110110011101000
          -88 callsubr
          vhcurveto
          hintmask 1001010101101000
          -98 callgsubr
          hintmask 1010110101010000
          -83 callsubr
          hintmask 1010111001101000
          -82 callgsubr
          -121 413 rmoveto
          -41 34 -34 41 40 34 34 41 49 callgsubr
          vhcurveto
          25 hmoveto
          50 callgsubr
          -27 -23 -23 -27 -27 -23 23 27 vhcurveto
          endchar
        </CharString>
        <CharString name="asciicircum">
          63 438 -21 22 -21 276 -20 hstemhm
          hintmask 01100000
          295 694 rmoveto
          -269 -276 rlineto
          85 hlineto
          184 176 rlineto
          hintmask 10100000
          192 -177 rlineto
          85 hlineto
          endchar
        </CharString>
        <CharString name="asciitilde">
          99 132 29 -29 46 155 46 -29 29 hstemhm
          33 21 -21 171 233 170 -20 20 hintmask 01101010
          162 333 rmoveto
          112 55 -201 133 hhcurveto
          79 66 71 66 56 -49 44 -48 -40 -33 -31 -24 -10 5 -5 6 5 0 5 6 2 hvcurveto
          hintmask 01010101
          30 9 19 10 25 hhcurveto
          47 32 -37 -42 -56 -57 -37 -50 hvcurveto
          -117 -47 201 -136 hhcurveto
          -79 -68 -69 -68 -58 51 -42 46 38 36 29 26 11 -6 6 -5 hvcurveto
          hintmask 10101010
          -10 6 -53 -57 hhcurveto
          -44 -34 36 44 59 62 33 46 hvcurveto
          endchar
        </CharString>
        <CharString name="asterisk">
          -63 301 -21 165 131 -117 92 -92 212 hstemhm
          37 242 -172 107 -48 113 hintmask 10011000
          37 489 rmoveto
          -57 56 1 0 vhcurveto
          16 40 26 31 6 30 -1 4 hhcurveto
          hintmask 11000100
          -48 -16 -65 -56 -45 vvcurveto
          -22 15 -39 42 33 17 25 27 vhcurveto
          7 -1 12 5 vvcurveto
          18 14 47 11 19 vhcurveto
          -57 10 51 -87 46 hhcurveto
          20 31 16 42 40 -29 6 -28 4 hvcurveto
          -32 5 -23 17 -25 23 rrcurveto
          -3 11 13 -1 13 hhcurveto
          59 78 21 56 38 -36 16 -24 -26 -10 -18 -18 -9 hvcurveto
          -13 -26 -18 -18 -43 -25 rrcurveto
          hintmask 10010010
          12 29 13 47 40 vvcurveto
          46 -17 38 -41 -43 -12 -41 -15 -20 20 -18 6 -8 vhcurveto
          10 -12 21 -44 3 -38 rrcurveto
          hintmask 10101000
          32 -32 -63 44 -41 hhcurveto
          -32 -21 -27 -35 hvcurveto
          endchar
        </CharString>
        <CharString name="at">
          230 -37 42 -42 110 -110 167 -10 50 237 187 -48 48 hstemhm
          51 52 75 100 196 109 -90 90 96 56 hintmask 0101011101100000
          493 120 rmoveto
          70 hlineto
          126 46 90 92 169 -157 123 -175 -194 -158 -152 -179 -154 118 -146 193 109 104 47 33 7 -5 23 -13 hvcurveto
          hintmask 1001011110100000
          -21 -53 -68 -119 hhcurveto
          -170 -91 140 121 143 129 137 178 172 97 -128 -120 -88 -53 -40 -43 hvcurveto
          250 vlineto
          hintmask 1001101101100000
          -90 -28 hlineto
          20 -39 -45 15 -37 hhcurveto
          -62 -132 -42 -121 -103 95 -51 88 67 57 30 57 8 hvcurveto
          -44 100 -78 callsubr
          14 -5 11 -9 hvcurveto
          hintmask 0010101110100000
          24 -20 2 -38 -59 callsubr
          75 34 73 64 vhcurveto
          hintmask 1001101101100000
          30 47 -17 -23 40 hvcurveto
          -139 -48 callsubr
          endchar
        </CharString>
        <CharString name="atilde">
          -45 callsubr
          -19 86 -20 20 -20 38 77 38 -20 20 0 callgsubr
          94 -75 75 -75 100 -45 20 hintmask 1010101010001000
          -50 callsubr
          hintmask 0110101000100100
          -88 callsubr
          vhcurveto
          hintmask 1001001001001000
          -98 callgsubr
          hintmask 1010101001010000
          -83 callsubr
          hintmask 1010101010001000
          -82 callgsubr
          -50 444 -107 callgsubr
          hintmask 1010010110000010
          -79 callgsubr
          endchar
        </CharString>
        <CharString name="b">
          -2 8 callgsubr
          448 24 278 33 callsubr
          220 100 hintmask 01111010
          164 750 rmoveto
          -100 -750 100 79 hlineto
          hintmask 10111010
          7 callsubr
          78 86 154 37 callgsubr
          hvcurveto
          35 callsubr
          hintmask 10110110
          -38 callsubr
          hintmask 10111010
          -2 callsubr
        </CharString>
        <CharString name="backslash">
          -37 -28 -21 779 -20 hstem
          89 730 rmoveto
          -68 hlineto
          393 -779 rlineto
          68 hlineto
          endchar
        </CharString>
        <CharString name="bar">
          -346 -179 -21 930 -20 hstem
          67 60 vstem
          127 730 rmoveto
          -60 -930 60 hlineto
          endchar
        </CharString>
        <CharString name="braceleft">
          51 callgsubr
          114 65 vstem
          179 196 rmoveto
          72 -14 68 -68 31 vhcurveto
          68 31 14 67 73 55 -8 58 48 vvcurveto
          60 12 41 60 29 callsubr
          -18 hhcurveto
          -106 -12 -66 -86 hvcurveto
          -24 1 -40 -16 vvcurveto
          -90 -33 -81 -85 -54 vhcurveto
          85 -54 33 -81 -90 -16 -1 -40 -24 vvcurveto
          -86 12 -66 106 18 18 2 4 17 vhcurveto
          50 callsubr
          -60 -12 41 60 hvcurveto
          48 8 58 55 vvcurveto
          endchar
        </CharString>
        <CharString name="braceright">
          51 callgsubr
          115 57 vstem
          107 196 rmoveto
          -55 8 -58 -48 vvcurveto
          -60 -12 -41 -60 26 callsubr
          18 hhcurveto
          106 12 66 86 hvcurveto
          24 -1 40 16 vvcurveto
          90 33 81 85 54 vhcurveto
          -85 54 -33 81 90 16 1 40 24 vvcurveto
          86 -12 66 -106 -18 -18 -2 -4 -17 vhcurveto
          48 callsubr
          60 12 -41 -60 hvcurveto
          -48 -8 -58 -55 vvcurveto
          -73 14 -67 68 -31 vhcurveto
          -68 -31 -14 -68 -72 vvcurveto
          endchar
        </CharString>
        <CharString name="bracketleft">
          46 callsubr
          68 60 -60 185 hintmask 11010000
          68 -147 rmoveto
          185 60 hlineto
          hintmask 11100000
          -125 750 hlineto
          hintmask 11010000
          125 60 -185 hlineto
          endchar
        </CharString>
        <CharString name="bracketright">
          46 callsubr
          11 185 -60 60 hintmask 11100000
          196 -147 rmoveto
          870 -185 -60 vlineto
          hintmask 11010000
          125 -750 hlineto
          hintmask 11100000
          -125 -60 hlineto
          endchar
        </CharString>
        <CharString name="brokenbar">
          -342 -179 -21 930 -20 hstem
          69 60 vstem
          129 730 rmoveto
          -60 -390 60 hlineto
          -150 vmoveto
          -60 -390 60 hlineto
          endchar
        </CharString>
        <CharString name="bullet">
          -206 217 166 hstem
          84 166 vstem
          84 45 callsubr
          -45 38 -38 45 45 38 38 45 45 -38 38 -45 -45 -38 -38 -45 vhcurveto
          endchar
        </CharString>
        <CharString name="c">
          -87 -10 21 241 20 -20 221 hstemhm
          32 100 120 20 128 20 hintmask 11011100
          392 99 rmoveto
          -43 -20 -54 -45 -56 hhcurveto
          -94 -36 106 120 131 43 86 93 72 60 -55 -59 -54 -41 -14 -42 callsubr
          hintmask 10111100
          79 -81 52 -79 -108 -120 -88 -153 -116 68 -126 147 95 54 58 51 25 vhcurveto
          endchar
        </CharString>
        <CharString name="ccedilla">
          -83 -198 28 126 65 231 20 -20 210 hstemhm
          34 100 120 20 49 46 33 20 hintmask 11101111
          394 99 rmoveto
          -43 -20 -54 -35 -56 hhcurveto
          -94 -36 96 120 131 43 76 93 72 60 -45 -59 -48 -41 -20 -42 callsubr
          hintmask 11011111
          79 -81 41 -79 -108 -120 -77 -153 -110 61 -110 132 -11 vhcurveto
          -45 -28 callgsubr
          26 vlineto
          71 11 43 42 22 44 rrcurveto
          endchar
        </CharString>
        <CharString name="cedilla">
          -356 -201 28 126 47 hstem
          127 46 vstem
          173 -108 rmoveto
          49 -38 22 -44 10 vhcurveto
          27 -60 -47 -55 callgsubr
          hvcurveto
          endchar
        </CharString>
        <CharString name="cent">
          -72 -109 -21 382 20 -20 210 138 -20 hstemhm
          42 100 79 60 129 20 hintmask 10111110
          402 99 rmoveto
          -19 -41 -50 -33 -52 -4 rrcurveto
          256 vlineto
          -17 17 27 -8 22 hhcurveto
          50 33 39 51 75 -74 41 -75 4 hvcurveto
          138 -60 -143 vlineto
          -93 -20 -86 -75 -130 vvcurveto
          -106 57 -106 122 -18 vhcurveto
          -132 60 131 vlineto
          80 7 47 44 23 47 rrcurveto
          -289 138 rmoveto
          100 25 68 54 26 vhcurveto
          -398 vlineto
          -56 29 -23 80 95 vvcurveto
          268 103 rmoveto
          hintmask 11011110
          -48 -41 -20 -26 -27 49 callsubr
          vhcurveto
          -59 callgsubr
          -5 -2 -5 -3 -4 -5 rrcurveto
          73 vlineto
          70 -1 59 -45 -58 vvcurveto
          endchar
        </CharString>
        <CharString name="circumflex">
          -156 541 -21 22 -21 173 -20 hstemhm
          hintmask 01100000
          189 694 rmoveto
          -72 callgsubr
          rlineto
          hintmask 10100000
          -63 callgsubr
        </CharString>
        <CharString name="colon">
          -306 1 132 196 132 hstem
          51 132 vstem
          51 395 -37 callsubr
        </CharString>
        <CharString name="comma">
          -62 callsubr
        </CharString>
        <CharString name="copyright">
          143 75 53 42 21 161 20 -20 210 -18 105 -51 51 hstemhm
          54 53 57 87 82 20 128 20 76 51 hintmask 1110011111100000
          107 363 rmoveto
          -14 callgsubr
          -53 hmoveto
          -25 callgsubr
          439 -74 rmoveto
          -44 -22 -47 -54 -67 hhcurveto
          -85 -21 85 71 hvcurveto
          hintmask 1110101111100000
          92 36 105 90 60 44 -47 -54 -56 -46 -15 -22 -26 49 callsubr
          vhcurveto
          -51 callsubr
          45 38 32 60 vhcurveto
          hintmask 1101011111100000
          76 -61 42 -79 -127 -70 -110 -91 -66 36 -125 142 101 51 63 56 28 vhcurveto
          endchar
        </CharString>
        <CharString name="currency">
          42 144 70 -53 53 297 52 -52 74 hstemhm
          90 53 297 52 hintmask 10101100
          90 363 rmoveto
          -51 19 -47 32 -36 vhcurveto
          -71 -85 rlineto
          84 hlineto
          37 44 rlineto
          hintmask 01101100
          -17 30 34 -10 36 hhcurveto
          35 34 9 17 29 hvcurveto
          hintmask 10011100
          36 -43 rlineto
          86 hlineto
          -71 84 rlineto
          32 36 20 47 51 vvcurveto
          51 -20 47 -32 36 vhcurveto
          74 89 rlineto
          -84 hlineto
          -41 -48 rlineto
          hintmask 10101100
          16 -29 -33 10 -35 hhcurveto
          -36 -33 -10 -16 -29 hvcurveto
          hintmask 10011100
          -41 48 rlineto
          -84 hlineto
          73 -88 rlineto
          -32 -36 -20 -47 -51 vvcurveto
          53 hmoveto
          80 68 68 81 80 68 -68 -80 -81 -68 -68 -80 -81 -68 68 81 vhcurveto
          endchar
        </CharString>
        <CharString name="d">
          -2 -10 29 2 -21 453 20 277 43 callgsubr
          hintmask 01111010
          374 hmoveto
          100 750 -100 -364 hlineto
          27 callgsubr
          hvcurveto
          hintmask 10111010
          36 callsubr
          vhcurveto
          hintmask 01111010
          38 callsubr
          hintmask 10111100
          16 callgsubr
          hintmask 10111010
          -2 callgsubr
        </CharString>
        <CharString name="dagger">
          -160 -179 -21 440 60 430 -20 hstem
          160 60 vstem
          220 45 callsubr
          430 -60 -430 -121 -60 121 -440 60 440 121 46 callgsubr
        </CharString>
        <CharString name="daggerdbl">
          -62 -179 -21 384 60 106 60 320 -20 hstem
          209 60 vstem
          269 410 rmoveto
          320 -60 -320 -176 -60 176 -106 -176 -60 176 -384 60 384 176 60 -176 106 176 46 callgsubr
        </CharString>
        <CharString name="degree">
          -232 375 42 166 41 hstem
          29 42 166 41 vstem
          71 500 rmoveto
          45 38 38 45 45 38 -38 -45 -45 -38 -38 -45 -45 -38 38 45 vhcurveto
          -42 hmoveto
          -68 57 -57 68 67 57 57 68 67 -57 57 -67 -68 -57 -57 -67 vhcurveto
          endchar
        </CharString>
        <CharString name="dieresis">
          -39 546 106 hstem
          85 44 callsubr
          vstem
          85 599 -106 callgsubr
        </CharString>
        <CharString name="divide">
          -30 1 132 67 60 69 132 hstem
          187 132 vstem
          49 260 23 callsubr
          -274 135 -37 callsubr
        </CharString>
        <CharString name="dollar">
          -20 -99 -21 121 20 225 20 240 20 150 21 113 -20 hstemhm
          47 44 116 60 40 136 -22 22 -2 44 hintmask 1111111100100000
          267 1 rmoveto
          74 3 144 46 173 vvcurveto
          109 -58 42 -50 22 vhcurveto
          -33 14 -39 11 -38 9 rrcurveto
          246 vlineto
          hintmask 1111111101000000
          74 -2 80 -37 -61 vvcurveto
          -8 callgsubr
          hintmask 1111111110000000
          -23 callsubr
          80 -99 40 -77 1 hvcurveto
          113 -60 -121 vlineto
          -80 -20 -80 -60 -105 vvcurveto
          -90 58 -46 72 -25 vhcurveto
          9 -4 11 -2 10 -3 rrcurveto
          -308 vlineto
          -68 15 -76 46 83 vvcurveto
          -41 callgsubr
          -101 90 -47 72 -15 hvcurveto
          -126 60 vlineto
          hintmask 1111111100100000
          174 292 rmoveto
          -115 -112 -32 -62 -4 vhcurveto
          298 vlineto
          88 -21 86 -25 -101 vvcurveto
          -350 380 rmoveto
          62 55 40 61 15 vhcurveto
          -223 vlineto
          -65 19 -51 27 60 vvcurveto
          endchar
        </CharString>
        <CharString name="e">
          -22 callsubr
          -1 callsubr
          hintmask 10101010
          -75 callgsubr
          hvcurveto
          hintmask 10010110
          -71 callgsubr
          hintmask 01010110
          -31 callsubr
          hintmask 10101010
          -60 callsubr
          endchar
        </CharString>
        <CharString name="e.ss01">
          -86 1 176 -25 25 161 21 94 20 hstemhm
          34 100 -100 120 237 28 hintmask 01111010
          253 152 rmoveto
          85 81 64 92 80 -62 85 -109 -117 -97 -98 -150 hvcurveto
          hintmask 10111010
          -105 48 -119 165 136 31 80 19 6 vhcurveto
          -42 hlineto
          -21 -38 -59 -82 -80 -44 56 138 10 0 9 1 10 vhcurveto
          hintmask 01110110
          -50 6 42 -41 70 hhcurveto
          -23 207 rmoveto
          -45 -34 -30 -40 -12 hvcurveto
          105 15 47 59 66 hhcurveto
          70 54 -67 -76 -86 -70 -47 -68 -59 -40 36 49 46 35 26 50 4 hvcurveto
          6 4 1 7 2 53 callgsubr
        </CharString>
        <CharString name="eacute">
          -87 callgsubr
          125 260 -82 callsubr
        </CharString>
        <CharString name="ecircumflex">
          -76 -10 21 0 151 18 158 0 135 -116 97 19 48 173 -20 -1 callsubr
          hintmask 0101001011000000
          -75 callgsubr
          -39 callgsubr
          hvcurveto
          hintmask 0110111011000000
          -66 callgsubr
          14 callsubr
          37 23 33 66 4 hvcurveto
          8 4 3 6 9 -13 1 -8 hvcurveto
          hintmask 1010111101000000
          -43 -35 -26 -36 -15 hvcurveto
          86 5 44 73 59 hhcurveto
          -7 240 -89 callsubr
        </CharString>
        <CharString name="edieresis">
          -22 callsubr
          -19 198 -106 106 hstemhm
          32 103 -103 116 -71 44 callsubr
          -57 86 hintmask 1010101000100000
          -75 callgsubr
          hvcurveto
          hintmask 1001010101000000
          -80 callsubr
          hintmask 0100100100100000
          14 callsubr
          hvcurveto
          hintmask 1001011001000000
          -34 callgsubr
          hintmask 1010101001000000
          -60 callsubr
          hintmask 1010010011000000
          -166 145 -106 callgsubr
        </CharString>
        <CharString name="egrave">
          -87 callgsubr
          19 140 rmoveto
          49 hlineto
          -63 120 rlineto
          hintmask 10101011
          -100 hlineto
          endchar
        </CharString>
        <CharString name="eight">
          44 -10 21 228 184 -23 23 263 20 hstemhm
          49 96 -58 94 113 20 87 94 -54 54 -54 95 hintmask 1101101001000000
          536 220 rmoveto
          112 -71 59 -85 22 vhcurveto
          hintmask 1101011010000000
          65 20 50 45 74 vvcurveto
          96 -82 58 -121 -129 -76 -65 -91 -75 52 -45 67 -19 vhcurveto
          hintmask 1101101001000000
          -88 -25 -69 -66 -115 vvcurveto
          -150 117 -65 117 134 119 84 146 vhcurveto
          -245 -209 rmoveto
          -92 -54 60 79 65 37 24 41 33 38 -15 -44 hvcurveto
          -36 -25 3 -10 vvcurveto
          -5 5 -2 5 21 14 28 26 44 -42 30 -49 -38 -26 -18 -23 -15 vhcurveto
          hintmask 1011101010000000
          104 7 39 79 102 hhcurveto
          101 48 -87 -111 -92 -32 -99 -118 hvcurveto
          hintmask 1101011100000000
          110 539 rmoveto
          -59 -24 -68 -86 -87 -23 68 62 77 35 56 72 71 42 -55 -81 vhcurveto
          endchar
        </CharString>
        <CharString name="ellipsis">
          4 -2 132 hstem
          37 132 37 132 37 132 cntrmask 01110000
          37 64 -28 callsubr
          169 hmoveto
          -97 callgsubr
          169 hmoveto
          -97 callgsubr
          endchar
        </CharString>
        <CharString name="emdash">
          79 240 60 hstem
          28 45 callsubr
          -60 558 46 callgsubr
        </CharString>
        <CharString name="endash">
          -40 15 callgsubr
          398 46 callgsubr
        </CharString>
        <CharString name="equal">
          10 184 60 106 60 hstem
          69 410 23 callsubr
          -412 -166 23 callsubr
          endchar
        </CharString>
        <CharString name="eth">
          22 0 20 209 24 129 41 148 149 21 -20 hstemhm
          36 100 97 20 152 109 -81 81 hintmask 1111111010000000
          397 740 rmoveto
          -76 -58 rlineto
          24 -44 -48 14 -50 hhcurveto
          -4 -30 42 -1 36 -14 32 -20 rlinecurve
          -111 -84 rlineto
          74 hlineto
          73 55 75 -72 36 -120 1 -89 rlinecurve
          51 -44 -71 27 -70 hhcurveto
          -114 -98 -72 -131 -105 62 -115 167 196 53 160 145 158 -63 123 -91 70 hvcurveto
          112 85 rlineto
          hintmask 1111111100000000
          -67 -604 rmoveto
          -83 -75 -34 -59 -102 -33 104 81 118 71 59 66 66 70 -60 -81 11 vhcurveto
          7 -19 -27 5 -28 hhcurveto
          -86 -27 -47 -35 -26 16 -24 17 -7 hvcurveto
          39 callgsubr
          -4 0 -10 8 hvcurveto
          -11 10 -4 11 10 vvcurveto
          16 10 47 57 48 37 -34 -58 vhcurveto
          endchar
        </CharString>
        <CharString name="exclam">
          -297 0 132 618 -20 hstemhm
          55 132 -115 100 hintmask 11010000
          172 750 41 callgsubr
          -134 -28 callsubr
          endchar
        </CharString>
        <CharString name="exclamdown">
          -322 -267 -21 618 132 hstemhm
          42 132 -115 100 hintmask 11010000
          159 262 41 callgsubr
          684 -28 callsubr
          endchar
        </CharString>
        <CharString name="f">
          -202 21 -21 401 20 -20 177 153 -20 hstemhm
          108 100 53 20 123 20 hintmask 11011110
          208 401 rmoveto
          100 20 -100 71 hlineto
          163 20 76 77 49 50 -30 -52 vhcurveto
          hintmask 10111110
          -46 callsubr
          hintmask 11111110
          -36 callgsubr
          -20 101 -401 100 vlineto
          endchar
        </CharString>
        <CharString name="five">
          -6 -10 21 109 129 -20 20 175 20 -20 130 -16 168 -106 65 -24 65 hstemhm
          44 189 -148 20 108 20 106 114 -52 94 hintmask 1011010001101000
          96 342 rmoveto
          56 46 55 26 54 hhcurveto
          100 50 -90 -97 -100 -54 -126 -129 -59 -97 27 92 62 45 37 43 31 32 -20 -40 hvcurveto
          -36 -25 6 -10 vvcurveto
          hintmask 1101010010001000
          -3 2 -6 9 19 15 27 28 46 -40 28 -43 -51 -55 -40 -78 -108 107 -33 84 169 91 135 116 105 -73 98 -147 vhcurveto
          hintmask 1101001001110000
          -71 -56 -23 -50 -43 hvcurveto
          279 vlineto
          -38 22 28 -12 32 hhcurveto
          hintmask 1100100110010000
          59 69 41 67 hhcurveto
          32 22 -11 -32 -24 -27 -20 -22 hvcurveto
          -42 12 28 -13 hhcurveto
          -2 -3 -1 -6 hvcurveto
          hintmask 1101010010010000
          -20 21 -17 30 31 32 35 36 48 -34 49 -70 vhcurveto
          hintmask 1101001001110000
          -62 -68 -41 -60 hhcurveto
          -26 -26 8 24 -22 hvcurveto
          -347 vlineto
          endchar
        </CharString>
        <CharString name="florin">
          -89 -130 20 72 -21 460 20 -20 177 155 -20 hstemhm
          148 100 52 20 123 20 hintmask 11101111
          46 401 rmoveto
          102 -310 hlineto
          -61 0 -140 -75 -29 -18 20 26 -22 vhcurveto
          4 -3 -3 1 -3 hhcurveto
          -7 -2 -8 -3 -3 2 -5 3 -5 hvcurveto
          -22 13 34 -25 53 hhcurveto
          146 11 194 28 hvcurveto
          309 17 callgsubr
          hintmask 11011111
          -46 callsubr
          hintmask 11111111
          -36 callgsubr
          vlineto
          endchar
        </CharString>
        <CharString name="four">
          -34 0 22 198 20 473 -20 hstem
          275 103 vstem
          379 22 rmoveto
          198 91 20 -92 473 vlineto
          -375 -473 rlineto
          -20 272 -198 -96 -22 302 22 vlineto
          -206 218 rmoveto
          -244 hlineto
          244 306 rlineto
          endchar
        </CharString>
        <CharString name="g">
          -22 51 callsubr
          87 20 440 23 -10 -20 hstemhm
          36 80 -80 100 -40 20 221 117 -100 100 hintmask 1101101000100000
          354 408 rmoveto
          35 -44 -52 30 -53 hhcurveto
          -58 -111 -36 -198 -153 67 -96 120 65 55 34 58 11 hvcurveto
          -137 vlineto
          21 callsubr
          hintmask 1011101001000000
          41 callsubr
          hintmask 1101010011000000
          3 callgsubr
          vlineto
          hintmask 1101010100100000
          -100 hlineto
          -218 -229 rmoveto
          hintmask 1101101000100000
          147 47 69 53 36 44 -30 -33 38 vhcurveto
          -262 vlineto
          52 -10 -44 19 -9 hhcurveto
          -5 -2 -7 -2 hvcurveto
          hintmask 1101100101000000
          -13 53 -10 -55 vvcurveto
          -57 -45 -42 -54 -94 -8 163 61 vhcurveto
          endchar
        </CharString>
        <CharString name="germandbls">
          -4 -89 -21 100 20 650 37 hstemhm
          64 100 95 157 -90 90 -11 101 hintmask 11110010
          279 10 rmoveto
          -52 -19 28 11 -2 hvcurveto
          8 -4 -3 0 -3 hhcurveto
          -5 -4 -5 -5 hvcurveto
          -3 1 0 -2 vvcurveto
          -41 18 49 -11 40 hhcurveto
          95 116 60 136 152 -144 27 -27 21 hvcurveto
          hintmask 11110100
          5 10 76 74 102 vvcurveto
          82 -49 43 -86 -104 -113 -63 -125 vhcurveto
          -619 100 679 vlineto
          55 45 36 43 38 36 -28 -74 vhcurveto
          hintmask 11111000
          -102 -67 -55 -32 vvcurveto
          hintmask 11110010
          -46 146 54 -180 vvcurveto
          -63 -18 -124 -108 vhcurveto
          endchar
        </CharString>
        <CharString name="grave">
          -348 615 -21 120 -20 hstem
          125 594 -67 callgsubr
        </CharString>
        <CharString name="greater">
          20 104 -21 436 -20 hstem
          531 45 callsubr
          -467 219 rlineto
          -64 vlineto
          347 -155 -347 -153 rlineto
          -64 vlineto
          endchar
        </CharString>
        <CharString name="guillemotleft">
          43 23 callgsubr
          526 23 -30 callsubr
          47 -277 -30 callsubr
          endchar
        </CharString>
        <CharString name="guillemotright">
          43 -14 callsubr
          507 277 -30 callgsubr
          endchar
        </CharString>
        <CharString name="guilsinglleft">
          -187 23 callgsubr
          296 23 -30 callsubr
          endchar
        </CharString>
        <CharString name="guilsinglright">
          -187 -14 callsubr
          endchar
        </CharString>
        <CharString name="h">
          -6 7 callgsubr
          277 -20 hstemhm
          64 99 0 54 callsubr
          hintmask 10110110
          -43 callsubr
          433 vlineto
          hintmask 10111010
          -99 -750 99 302 hlineto
          hintmask 01111010
          -70 callsubr
          endchar
        </CharString>
        <CharString name="hyphen">
          12 callgsubr
        </CharString>
        <CharString name="i">
          44 callgsubr
          542 106 -35 callsubr
          -103 595 9 callgsubr
          endchar
        </CharString>
        <CharString name="iacute">
          3 callsubr
          93 715 -82 callsubr
        </CharString>
        <CharString name="icircumflex">
          44 callgsubr
          695 -20 -35 callsubr
          -57 695 -89 callsubr
        </CharString>
        <CharString name="idieresis">
          44 callgsubr
          547 106 hstem
          -47 107 4 100 8 107 -34 callsubr
          -211 600 -106 callgsubr
        </CharString>
        <CharString name="igrave">
          3 callsubr
          -74 595 -67 callgsubr
        </CharString>
        <CharString name="j">
          -312 51 callsubr
          560 -20 98 106 hstemhm
          -194 20 238 100 hintmask 11011110
          62 594 9 callgsubr
          2 -649 rmoveto
          21 callsubr
          hintmask 10111110
          41 callsubr
          hintmask 11011110
          3 callgsubr
          -100 vlineto
          endchar
        </CharString>
        <CharString name="k">
          -40 -90 20 75 -21 37 -21 472 -20 298 -20 hstemhm
          64 100 hintmask 11011100
          456 -90 5 callsubr
          -54 -48 -115 134 371 -219 hhcurveto
          -9 -9 -1 -1 -11 hvcurveto
          49 64 rlineto
          108 83 66 1 36 callgsubr
          -71 -51 -64 -48 hvcurveto
          -126 -167 rlineto
          539 -100 vlineto
          hintmask 10111100
          -750 100 178 vlineto
          78 103 rlineto
          -27 135 -116 -344 195 hhcurveto
          endchar
        </CharString>
        <CharString name="l">
          -244 -131 20 148 20 639 -20 hstem
          105 100 vstem
          105 32 rmoveto
          16 -26 -27 5 callgsubr
          -55 53 31 -74 96 hhcurveto
          3 1 5 3 5 -5 7 -7 hvcurveto
          -74 3 -1 66 17 vvcurveto
          721 -100 vlineto
          endchar
        </CharString>
        <CharString name="less">
          20 104 -21 436 -20 hstem
          496 83 rmoveto
          64 vlineto
          -347 153 347 155 rlineto
          64 vlineto
          -467 -219 rlineto
          endchar
        </CharString>
        <CharString name="logicalnot">
          76 402 60 hstemhm
          483 60 vstemhm
          55 462 rmoveto
          -60 428 vlineto
          hintmask 11000000
          -125 60 185 vlineto
          endchar
        </CharString>
        <CharString name="m">
          303 9 callsubr
          -3 54 callsubr
          hintmask 1010011010000000
          -61 callsubr
          21 0 21 -1 19 vhcurveto
          hintmask 0110100110000000
          -39 7 25 -31 38 -75 callsubr
          -67 callsubr
          hintmask 1010100110000000
          -208 100 234 vlineto
          132 -9 107 -120 -78 -100 -66 -83 -5 vhcurveto
          87 -8 -27 62 -91 hhcurveto
          -80 -98 -69 -87 -5 hvcurveto
          hintmask 1001101010000000
          15 callsubr
          hintmask 0110101010000000
          -70 callsubr
          endchar
        </CharString>
        <CharString name="mu">
          26 -150 199 -48 48 -29 -21 462 -20 hstemhm
          82 100 225 100 hintmask 10011100
          82 -150 rmoveto
          100 155 hlineto
          hintmask 01011100
          -4 15 15 0 11 hhcurveto
          89 62 67 75 33 hvcurveto
          hintmask 00111100
          -144 100 462 -100 -237 vlineto
          hintmask 10011100
          -104 -10 -78 -71 -55 hhcurveto
          -37 -38 31 77 -7 hvcurveto
          304 -100 vlineto
          endchar
        </CharString>
        <CharString name="multiply">
          -29 178 -21 301 -20 hstem
          213 301 rmoveto
          -148 -144 rlineto
          84 hlineto
          106 103 106 -103 rlineto
          86 hlineto
          -150 145 160 156 rlineto
          -84 hlineto
          -118 -115 -119 115 rlineto
          -84 hlineto
          endchar
        </CharString>
        <CharString name="n">
          -6 9 callsubr
          hintmask 10100110
          -43 callsubr
          hintmask 10011010
          15 callsubr
          hintmask 01101010
          -70 callsubr
          endchar
        </CharString>
        <CharString name="nine">
          14 -10 21 -21 170 -18 153 -26 26 391 20 hstemhm
          44 92 -58 23 -23 58 260 108 hintmask 1010100110000000
          396 391 rmoveto
          -66 -48 -54 -30 -54 hhcurveto
          -72 -32 54 122 161 60 54 75 83 35 -99 -196 7 hvcurveto
          hintmask 1010101010000000
          -295 -301 rmoveto
          36 25 16 27 vhcurveto
          33 4 -24 10 hhcurveto
          3 6 2 7 hvcurveto
          hintmask 0101101010000000
          17 -32 16 -28 -33 -38 -21 -51 -61 54 -37 83 204 85 230 152 123 -48 211 -185 vhcurveto
          hintmask 1001110010000000
          -132 -95 -97 -142 -128 69 -70 107 63 70 34 60 44 hvcurveto
          -157 -1 -48 -195 -149 hhcurveto
          hintmask 1010101010000000
          -68 -30 34 45 hvcurveto
          endchar
        </CharString>
        <CharString name="ntilde">
          -6 7 callgsubr
          -10 -20 78 -20 callgsubr
          64 99 -65 20 45 20 192 66 -66 100 -54 20 hintmask 1010101001110000
          -68 callgsubr
          vlineto
          hintmask 1010101010001000
          100 234 hlineto
          0 callsubr
          hintmask 1001101010010000
          15 callsubr
          hintmask 0110101001100100
          -70 callsubr
          3 369 -107 callgsubr
          hintmask 1010010110000100
          -79 callgsubr
          endchar
        </CharString>
        <CharString name="numbersign">
          85 21 -21 201 60 167 60 212 -20 hstem
          181 201 rmoveto
          148 hlineto
          -76 -201 rlineto
          68 hlineto
          76 201 rlineto
          119 60 -96 hlineto
          63 167 rlineto
          107 60 -84 39 callsubr
          -149 39 callsubr
          -114 -60 91 hlineto
          -64 -167 rlineto
          -101 -60 78 hlineto
          -76 -201 rlineto
          68 hlineto
          162 428 rmoveto
          149 hlineto
          -64 -167 rlineto
          -148 hlineto
          endchar
        </CharString>
        <CharString name="o">
          -40 callgsubr
          -100 callgsubr
          endchar
        </CharString>
        <CharString name="oacute">
          -86 callgsubr
          282 488 -82 callsubr
        </CharString>
        <CharString name="ocircumflex">
          25 -5 20 0 144 20 122 0 20 130 20 0 50 173 -20 hstemhm
          11 callgsubr
          106 hintmask 1010101111000000
          -99 callsubr
          hvcurveto
          hintmask 0101011111000000
          -97 callsubr
          vhcurveto
          -53 callsubr
          153 468 -89 callsubr
        </CharString>
        <CharString name="odieresis">
          -40 callgsubr
          75 106 hstemhm
          32 100 -4 114 -20 20 105 107 -28 106 hintmask 1111110101000000
          -96 callgsubr
          vhcurveto
          hintmask 1111110110000000
          -47 callgsubr
          hintmask 1111101010000000
          -4 373 -106 callgsubr
        </CharString>
        <CharString name="oe">
          -3 23 -23 155 -131 -21 168 22 148 21 94 20 hstemhm
          35 100 118 100 -100 120 184 100 hintmask 1001111101000000
          255 473 rmoveto
          -153 -67 -105 -133 -121 55 -117 168 40 40 6 17 29 hvcurveto
          hintmask 0011111101000000
          -13 29 37 -7 45 hhcurveto
          hintmask 0101111101000000
          131 49 61 91 hvcurveto
          -99 hlineto
          hintmask 1001111101000000
          -11 -3 15 -121 -102 hhcurveto
          -74 -42 65 129 10 0 9 1 10 hvcurveto
          -48 7 40 -27 66 hhcurveto
          56 134 20 132 142 -157 11 -36 -34 -36 -10 -19 -31 hvcurveto
          19 -31 -30 10 -47 hhcurveto
          7 -456 rmoveto
          -85 -42 105 117 127 49 87 72 28 20 -14 -26 19 hvcurveto
          -42 -42 -28 -64 -84 vvcurveto
          -65 16 -67 51 -43 vhcurveto
          -23 -15 -20 -8 -23 hhcurveto
          187 342 rmoveto
          -44 -33 -28 -37 -13 hvcurveto
          101 16 48 58 57 hhcurveto
          53 24 -51 -68 -113 -66 -31 -43 hvcurveto
          hintmask 1001111011000000
          -36 -39 21 54 36 18 32 67 5 hvcurveto
          7 4 2 6 1 53 callgsubr
        </CharString>
        <CharString name="ograve">
          -86 callgsubr
          147 368 -67 callgsubr
        </CharString>
        <CharString name="one">
          -167 0 22 690 -20 hstem
          153 103 vstem
          52 424 rmoveto
          101 121 rlineto
          -523 -96 -22 302 22 -103 690 vlineto
          -239 -288 rlineto
          endchar
        </CharString>
        <CharString name="onehalf">
          288 -28 -21 34 18 callgsubr
          -109 20 410 -20 43 -20 hstemhm
          108 83 288 11 callsubr
          hintmask 110000101111001000000000
          493 28 25 callgsubr
          hintmask 110000101110010100000000
          42 callsubr
          11 34 18 -9 11 -19 7 hvcurveto
          -3 -2 -1 -3 -4 4 -2 3 -2 hvcurveto
          hintmask 100001011111001000000000
          7 -5 3 -8 -8 20 callsubr
          hintmask 100100101111000010000000
          -4 callgsubr
          hintmask 101000101111000001000000
          19 callsubr
          hintmask 110000101111000100000000
          -32 -17 -23 -18 hvcurveto
          hintmask 110000101111000010000000
          -9 4 -17 9 4 5 4 2 1 vhcurveto
          hintmask 110000101110100001000000
          4 -7 -1 14 vvcurveto
          19 30 callgsubr
          hintmask 100010011111001000000000
          38 callgsubr
          -433 519 -35 callgsubr
          149 31 callsubr
          endchar
        </CharString>
        <CharString name="onequarter">
          192 -28 -21 49 20 97 20 163 20 410 -20 43 -20 hstem
          108 83 362 83 vstem
          394 6 callgsubr
          -576 90 -35 callgsubr
          134 31 callsubr
          -6 -593 40 callgsubr
        </CharString>
        <CharString name="onesuperior">
          -264 300 20 433 -20 hstem
          107 83 vstem
          59 543 -35 callgsubr
          endchar
        </CharString>
        <CharString name="ordfeminine">
          -169 336 182 -23 23 19 89 hstemhm
          33 80 -58 58 -58 80 86 101 -80 80 hintmask 10100101
          186 545 rmoveto
          3 -2 4 -2 vhcurveto
          -24 1 -23 1 22 vvcurveto
          24 30 14 28 45 4 -37 -32 vhcurveto
          -38 vlineto
          7 -26 -28 4 -25 hhcurveto
          hintmask 10110001
          -45 -85 -15 -75 -71 78 -21 48 48 29 21 30 6 hvcurveto
          -45 80 180 vlineto
          69 -68 35 -71 vhcurveto
          hintmask 01101010
          -38 -90 -10 -40 -37 77 -2 37 2 15 0 8 hvcurveto
          30 -96 rmoveto
          3 -5 -4 1 -3 hhcurveto
          -4 -10 -1 -5 -4 7 -2 8 -7 hvcurveto
          15 -13 1 -21 -5 vvcurveto
          -29 -27 -12 -25 -44 -12 37 33 42 19 29 39 vhcurveto
          hintmask 10110001
          16 28 -5 -9 27 hvcurveto
          -73 vlineto
          -4 20 -12 15 -10 6 rrcurveto
          endchar
        </CharString>
        <CharString name="ordmasculine">
          -209 363 46 182 45 hstem
          29 46 182 45 vstem
          75 500 rmoveto
          50 42 41 49 50 41 -41 -50 -49 -41 -42 -50 -49 -42 42 49 vhcurveto
          -46 hmoveto
          -75 62 -62 75 74 62 62 75 74 -62 62 -74 -75 -62 -62 -74 vhcurveto
          endchar
        </CharString>
        <CharString name="oslash">
          -64 -28 -21 36 20 446 20 27 -20 hstem
          31 100 213 100 vstem
          140 -49 rmoveto
          25 51 rlineto
          -9 22 25 -6 26 hhcurveto
          125 81 126 125 70 -26 64 -44 43 hvcurveto
          43 85 rlineto
          -68 hlineto
          -24 -48 rlineto
          13 -27 -29 8 -32 hhcurveto
          -119 -87 -106 -129 -77 30 -78 53 -48 hvcurveto
          -42 -84 rlineto
          59 284 rmoveto
          134 52 84 54 23 24 -15 -30 19 vhcurveto
          -154 -304 rlineto
          -12 39 -6 46 46 vvcurveto
          110 -228 rmoveto
          -23 -20 11 19 -15 hvcurveto
          150 296 rlineto
          7 -29 4 -34 -39 vvcurveto
          -104 -28 -120 -75 vhcurveto
          endchar
        </CharString>
        <CharString name="otilde">
          -40 callgsubr
          50 -20 callgsubr
          11 callgsubr
          33 -20 20 -20 93 hintmask 1111101011001000
          -98 callsubr
          vhcurveto
          hintmask 1111101011100000
          -19 callsubr
          -47 callgsubr
          158 395 -107 callgsubr
          hintmask 1111010111010000
          -79 callgsubr
          endchar
        </CharString>
        <CharString name="p">
          -2 -229 -21 240 20 438 24 -9 33 callsubr
          220 100 hintmask 11011010
          164 463 rmoveto
          -100 -713 100 329 hlineto
          7 callsubr
          78 86 154 hvcurveto
          hintmask 11101010
          37 callgsubr
          vhcurveto
          hintmask 11011010
          35 callsubr
          hintmask 11100110
          -38 callsubr
          hintmask 11101010
          -2 callsubr
        </CharString>
        <CharString name="paragraph">
          69 22 -21 656 40 hstem
          234 80 105 80 vstem
          499 1 rmoveto
          656 71 40 -256 vlineto
          -166 -115 -67 -148 -172 156 -20 45 -3 hvcurveto
          -286 80 656 105 -656 vlineto
          endchar
        </CharString>
        <CharString name="parenleft">
          52 callgsubr
          36 60 vstem
          96 305 rmoveto
          170 75 198 133 29 callsubr
          -20 hhcurveto
          -186 -69 -174 -214 -214 69 -185 186 20 18 2 4 17 hvcurveto
          50 callsubr
          -133 -75 201 170 hvcurveto
          endchar
        </CharString>
        <CharString name="parenright">
          52 callgsubr
          251 60 vstem
          251 305 rmoveto
          -170 -75 -201 -133 26 callsubr
          20 hhcurveto
          186 69 185 214 214 -69 174 -186 -20 -18 -2 -4 -17 hvcurveto
          48 callsubr
          133 75 -198 -170 hvcurveto
          endchar
        </CharString>
        <CharString name="percent">
          138 17 callsubr
          36 45 callgsubr
          33 45 callgsubr
          hintmask 1011101111000000
          97 -61 callgsubr
          hintmask 0111011111000000
          -17 callgsubr
          hintmask 1011101111000000
          -16 callsubr
          endchar
        </CharString>
        <CharString name="period">
          -334 -2 132 hstem
          37 132 vstem
          37 64 -28 callsubr
          endchar
        </CharString>
        <CharString name="periodcentered">
          -322 233 132 hstem
          43 132 vstem
          43 299 -28 callsubr
          endchar
        </CharString>
        <CharString name="perthousand">
          479 17 callsubr
          40 45 callgsubr
          33 45 callgsubr
          53 45 callgsubr
          hintmask 1011101111110000
          101 -61 callgsubr
          hintmask 0111011111110000
          -17 callgsubr
          hintmask 1011101111110000
          -16 callsubr
          279 hmoveto
          -63 callsubr
          61 hmoveto
          -24 callgsubr
          endchar
        </CharString>
        <CharString name="plus">
          -60 124 -21 176 60 176 -20 hstem
          211 60 vstem
          211 339 4 callsubr
          endchar
        </CharString>
        <CharString name="plusminus">
          -10 -1 60 250 60 176 -20 hstem
          236 60 vstem
          236 369 4 callsubr
          -177 -486 23 callsubr
          endchar
        </CharString>
        <CharString name="q">
          -2 -229 -21 240 29 434 20 -10 43 callgsubr
          hintmask 11011010
          374 -250 rmoveto
          100 713 -100 -77 hlineto
          hintmask 11101010
          27 callgsubr
          36 callsubr
          hvcurveto
          38 callsubr
          hintmask 11101100
          16 callgsubr
          hintmask 11101010
          -2 callgsubr
        </CharString>
        <CharString name="question">
          -128 0 132 337 20 185 20 hstemhm
          40 20 36 132 -91 29 31 31 96 54 hintmask 11111001
          96 66 -28 callsubr
          72 121 rmoveto
          hintmask 11110111
          -2 8 0 9 11 158 212 -43 186 vvcurveto
          101 -63 77 -117 -89 -69 -44 -79 -66 49 -36 45 33 50 21 50 32 -20 21 -13 5 vhcurveto
          1 -2 -2 0 -2 hhcurveto
          -6 -4 -2 -6 -6 3 0 8 -7 hvcurveto
          11 -10 7 -11 -14 vvcurveto
          -29 -28 -25 -34 -33 -42 23 58 70 61 34 72 81 50 -43 -69 vhcurveto
          -132 -187 50 -211 vvcurveto
          -22 2 -29 6 -31 vhcurveto
          endchar
        </CharString>
        <CharString name="questiondown">
          -137 -232 20 96 -21 110 20 337 132 hstemhm
          31 54 96 31 -31 132 -70 29 77 20 hintmask 1111101010000000
          313 396 rmoveto
          -69 callgsubr
          -69 callsubr
          vhcurveto
          -73 -121 rmoveto
          hintmask 1111110110000000
          1 -9 2 -8 -11 -158 -212 43 -186 vvcurveto
          -101 63 -77 117 89 69 44 79 66 -49 36 -45 -33 -50 -21 -50 -32 20 -21 13 -5 vhcurveto
          39 callgsubr
          -3 0 -8 7 hvcurveto
          -11 10 -7 11 14 vvcurveto
          29 28 25 34 33 42 -23 -58 -70 -61 -34 -72 -81 -50 43 69 vhcurveto
          132 187 -50 211 vvcurveto
          22 -2 29 -6 31 vhcurveto
          endchar
        </CharString>
        <CharString name="quotedbl">
          -130 467 233 hstem
          25 135 85 -18 callsubr
          220 hmoveto
          -46 callgsubr
          endchar
        </CharString>
        <CharString name="quotedblbase">
          -107 -67 2 callsubr
          hstemhm
          36 141 79 141 hintmask 01110000
          36 66 rmoveto
          -39 callsubr
          220 hmoveto
          hintmask 01110000
          -39 callsubr
          endchar
        </CharString>
        <CharString name="quotedblleft">
          -114 28 callsubr
          88 141 hintmask 10110000
          170 617 rmoveto
          -38 callgsubr
          229 hmoveto
          hintmask 10110000
          -38 callgsubr
          endchar
        </CharString>
        <CharString name="quotedblright">
          -122 27 callsubr
          88 141 hintmask 01110000
          253 684 -42 callgsubr
          -229 hmoveto
          hintmask 01110000
          -73 callsubr
          hintmask 10110000
          -68 callsubr
          endchar
        </CharString>
        <CharString name="quoteleft">
          -343 28 callsubr
          hintmask 10100000
          170 617 rmoveto
          -41 callsubr
          hintmask 01100000
          -24 callsubr
          endchar
        </CharString>
        <CharString name="quoteright">
          -351 27 callsubr
          hintmask 01100000
          24 684 -74 callsubr
        </CharString>
        <CharString name="quotesinglbase">
          -62 callsubr
        </CharString>
        <CharString name="quotesingle">
          -350 467 233 hstem
          25 -18 callsubr
          endchar
        </CharString>
        <CharString name="r">
          -154 21 -21 402 78 -30 30 -17 -20 hstemhm
          64 100 hintmask 10101000
          392 425 rmoveto
          41 -45 14 -36 -65 -53 -63 -72 -29 vhcurveto
          hintmask 10011000
          118 -100 -463 100 241 vlineto
          hintmask 10101000
          107 8 59 102 59 hhcurveto
          hintmask 11001000
          54 -24 -48 43 hhcurveto
          15 14 8 15 hvcurveto
          endchar
        </CharString>
        <CharString name="registered">
          143 75 53 -53 121 -10 114 -10 249 -158 158 -19 129 -51 51 hstemhm
          54 53 122 57 75 60 -42 42 -42 60 138 51 hintmask 1010101110011000
          54 363 rmoveto
          -25 callgsubr
          53 hmoveto
          -14 callgsubr
          332 -64 rmoveto
          43 -13 46 -36 14 vhcurveto
          hintmask 1001001110101000
          20 15 11 27 23 vvcurveto
          38 -28 34 -36 -30 -25 -24 -16 -13 vhcurveto
          40 -60 -348 57 127 vlineto
          -16 3 13 -12 19 hhcurveto
          hintmask 1010101110101000
          10 15 3 7 2 -1 3 -2 hvcurveto
          -1 -14 -5 -7 hhcurveto
          -19 -7 20 14 23 21 24 28 31 4 -31 -64 hvcurveto
          -43 vlineto
          -38 45 -19 35 18 7 5 4 2 -2 3 -1 vhcurveto
          hintmask 0100010110011000
          -6 0 -4 -11 hhcurveto
          -19 -6 12 12 hvcurveto
          -105 178 rmoveto
          -23 -10 -19 -20 -4 -22 rrcurveto
          140 vlineto
          32 25 11 2 6 hhcurveto
          hintmask 1010101111001000
          24 7 -32 -29 -27 -6 -27 -21 -7 hvcurveto
          endchar
        </CharString>
        <CharString name="s">
          -102 -10 20 347 118 34 callsubr
          40 28 -28 46 276 44 hintmask 10101100
          -12 callsubr
          hintmask 11010100
          -56 callsubr
          21 callgsubr
          endchar
        </CharString>
        <CharString name="scaron">
          -102 -10 20 347 118 -20 20 -20 239 -1 -20 hstemhm
          40 28 -28 46 276 44 hintmask 10101011
          -12 callsubr
          hintmask 11001101
          -56 callsubr
          hintmask 10010101
          21 callgsubr
          153 704 rmoveto
          -55 hlineto
          -112 -94 rlineto
          hintmask 11001101
          33 callgsubr
        </CharString>
        <CharString name="section">
          -3 -219 21 129 -21 42 20 574 20 150 21 hstemhm
          49 46 -4 22 -22 136 84 136 -22 22 -4 44 hintmask 1111110000100000
          51 544 rmoveto
          -60 25 -40 38 -28 vhcurveto
          -37 -34 -28 -51 -76 vvcurveto
          -109 58 -42 50 -22 vhcurveto
          111 -49 175 4 -111 vvcurveto
          -81 -93 -43 -79 vhcurveto
          hintmask 1111101010000000
          -75 -83 38 62 34 26 16 28 hvcurveto
          46 -9 -42 17 hhcurveto
          hintmask 1111100100100000
          5 1 4 5 24 -22 29 -42 -36 -36 -22 -48 -81 100 -40 77 94 125 61 132 60 -25 40 -39 28 hvcurveto
          37 34 29 51 76 vvcurveto
          106 -55 44 -53 23 vhcurveto
          hintmask 1111110001000000
          -111 49 -175 -4 111 vvcurveto
          81 93 43 -11 callsubr
          hintmask 1111110010000000
          -23 callsubr
          80 -98 41 -78 -95 -125 -61 -132 hvcurveto
          394 -332 rmoveto
          -44 -17 -32 -23 -23 vhcurveto
          -15 9 -16 7 -17 6 rrcurveto
          -107 37 -157 -3 137 vvcurveto
          43 16 32 23 23 vhcurveto
          15 -8 17 -7 17 -6 rrcurveto
          12 callsubr
        </CharString>
        <CharString name="semicolon">
          -297 -67 2 callsubr
          197 132 hstemhm
          52 141 hintmask 01110000
          52 66 -42 callgsubr
          329 vmoveto
          -97 callgsubr
          endchar
        </CharString>
        <CharString name="seven">
          -97 21 -21 512 194 -107 77 -50 50 hstemhm
          21 116 -18 112 182 20 hintmask 11000110
          233 hmoveto
          -2 15 0 6 2 426 202 18 206 vvcurveto
          6 0 5 -4 22 vhcurveto
          hintmask 10011010
          -23 -26 -15 -7 -36 hhcurveto
          hintmask 11001010
          -75 -89 30 -58 hhcurveto
          -64 -45 -37 -75 -59 28 -23 37 41 10 29 14 13 -10 10 -5 -3 -3 -3 -3 hvcurveto
          -4 9 -1 -13 vvcurveto
          -20 -19 -9 -18 -19 -30 10 40 vhcurveto
          hintmask 10011010
          41 32 10 41 vhcurveto
          hintmask 10100110
          67 72 -27 44 hhcurveto
          29 53 16 45 36 hvcurveto
          -7 vlineto
          -154 -294 -148 -330 vvcurveto
          -7 0 -8 1 -6 vhcurveto
          endchar
        </CharString>
        <CharString name="six">
          14 -10 21 394 25 -25 149 -18 170 34 callsubr
          50 108 260 58 -58 92 -57 23 hintmask 1010111000000000
          158 308 rmoveto
          66 48 54 31 54 hhcurveto
          71 33 -55 -119 -166 -64 -54 -71 -98 -20 105 192 -7 hvcurveto
          hintmask 1010110010000000
          295 45 callsubr
          -38 -24 -16 -28 vhcurveto
          -34 -3 24 -10 hhcurveto
          -3 -6 -2 -7 hvcurveto
          hintmask 1101010010000000
          -17 32 -16 28 33 38 21 51 61 -54 37 -83 -204 -85 -225 -157 -117 47 -217 190 vhcurveto
          hintmask 1100110100000000
          128 95 98 146 125 -69 71 -107 -63 -68 -34 -60 -46 hvcurveto
          151 1 45 199 152 hhcurveto
          hintmask 1101010010000000
          67 31 -35 -43 hvcurveto
          endchar
        </CharString>
        <CharString name="slash">
          -37 -28 -21 779 -20 hstem
          21 -49 rmoveto
          68 hlineto
          393 779 rlineto
          -68 hlineto
          endchar
        </CharString>
        <CharString name="space">
          -336 endchar
        </CharString>
        <CharString name="sterling">
          -13 -4 52 -27 -21 401 20 -20 177 -19 191 -17 -20 hstemhm
          136 101 52 20 123 20 hintmask 0110101110000000
          70 hmoveto
          54 20 30 18 34 hhcurveto
          hintmask 1010011110000000
          70 87 -76 69 hhcurveto
          53 58 45 82 3 hvcurveto
          -20 hlineto
          -56 -12 -26 -19 -32 hhcurveto
          -50 -60 44 22 -57 hvcurveto
          287 17 callgsubr
          hintmask 1001011110000000
          -46 callsubr
          hintmask 0110101110000000
          -36 callgsubr
          -20 102 -282 vlineto
          -45 -17 -41 -41 -1 -61 rrcurveto
          endchar
        </CharString>
        <CharString name="t">
          -205 -10 20 433 20 137 -20 hstem
          92 100 vstem
          443 vmoveto
          92 -273 hlineto
          -104 37 -76 89 80 25 49 10 5 vhcurveto
          -3 callgsubr
          -54 -48 hhcurveto
          -48 -6 65 59 hvcurveto
          309 105 20 -105 137 -100 -137 -92 vlineto
          endchar
        </CharString>
        <CharString name="thorn">
          -11 -128 -21 139 20 431 29 131 33 callsubr
          210 100 hintmask 11111010
          164 601 8 callsubr
          154 194 -108 46 -65 -52 -57 -29 -34 -47 hvcurveto
          229 -164 -25 callsubr
          271 vlineto
          32 41 49 29 34 hhcurveto
          55 50 -75 -123 hvcurveto
          endchar
        </CharString>
        <CharString name="three">
          -35 -10 21 -21 248 -19 166 -13 158 -16 192 34 callsubr
          40 190 -165 21 -21 137 8 20 95 93 -62 103 hintmask 1001011000100000
          325 556 rmoveto
          -120 -87 -44 -46 -3 vhcurveto
          1 -8 -20 6 -17 hhcurveto
          -16 -9 -8 -8 -8 8 -7 16 23 25 6 1 hvcurveto
          hintmask 1010100101010000
          108 54 -95 -93 -91 -50 -82 -101 -88 -58 48 73 53 32 34 49 43 27 -23 -36 hvcurveto
          -36 -25 3 -10 vvcurveto
          -4 4 -3 6 19 16 25 29 vhcurveto
          hintmask 0101011000010000
          43 -39 31 -53 -59 -39 -42 -63 -86 74 -57 113 151 81 105 102 vhcurveto
          hintmask 1010100011100000
          91 -66 89 -138 8 vhcurveto
          101 30 62 63 71 vvcurveto
          102 -102 55 -94 -81 -76 -43 -76 -42 29 -31 39 24 45 15 26 4 -2 4 -4 vhcurveto
          hintmask 1001010101100000
          -6 -12 -33 -42 hhcurveto
          -30 -20 23 35 55 60 43 60 59 60 -31 -99 hvcurveto
          endchar
        </CharString>
        <CharString name="threequarters">
          225 0 20 97 20 316 -20 hstem
          587 83 vstem
          428 6 callgsubr
          -83 -316 40 callgsubr
        </CharString>
        <CharString name="threesuperior">
          -200 288 153 -17 94 -9 104 -16 110 hstemhm
          31 126 -105 235 -148 169 -100 79 -59 80 hintmask 1010100100000000
          134 688 rmoveto
          40 34 -15 -59 -84 -68 -2 -38 -1 hvcurveto
          -13 -5 -4 -6 -8 8 -2 8 hvcurveto
          8 4 2 14 hhcurveto
          hintmask 0101100010000000
          51 51 -29 -82 -66 -33 -28 -55 -57 -33 31 40 27 15 22 32 hvcurveto
          hintmask 1010001000000000
          22 20 -10 -22 hvcurveto
          -21 -18 4 -6 vvcurveto
          -3 4 -6 6 vhcurveto
          hintmask 1010100100000000
          7 19 10 23 27 -25 21 -34 -42 -25 -32 -37 -49 43 -35 78 hvcurveto
          hintmask 0101001000000000
          69 87 27 86 71 -58 41 -84 5 hvcurveto
          hintmask 1001010000000000
          60 12 61 27 54 vvcurveto
          67 -96 29 -53 -33 -53 -11 -51 -29 17 -19 27 29 13 23 9 4 -2 2 -4 vhcurveto
          hintmask 1010100100000000
          -14 4 -22 -26 hhcurveto
          -13 -12 6 25 7 1 37 62 hvcurveto
          endchar
        </CharString>
        <CharString name="tilde">
          -144 521 -20 callgsubr
          25 20 303 20 hintmask 10101100
          199 621 -107 callgsubr
          hintmask 01011100
          -79 callgsubr
          endchar
        </CharString>
        <CharString name="trademark">
          414 234 -21 67 20 99 20 105 -10 callgsubr
          -1 -20 hstemhm
          53 22 -22 141 59 59 31 20 154 20 249 60 hintmask 1111011011110000
          769 694 rmoveto
          -88 -294 -86 295 rlineto
          -78 -299 hlineto
          -75 -42 -21 -38 -34 -40 17 45 24 12 13 20 vhcurveto
          11 0 -4 7 hhcurveto
          4 1 1 3 14 -16 6 -11 -15 -33 -12 -45 -50 41 -32 53 45 55 24 108 hvcurveto
          263 vlineto
          118 -390 rlineto
          -4 1 2 -4 55 callsubr
          2 4 3 1 hvcurveto
          117 393 rlineto
          -399 vlineto
          -44 43 -21 40 28 9 10 6 3 -2 3 -2 vhcurveto
          -5 0 -10 -20 hhcurveto
          -25 -6 14 15 hvcurveto
          440 vlineto
          -534 -394 rmoveto
          hintmask 1111100111110000
          376 160 20 -305 vlineto
          10 callgsubr
          2 -43 -48 hhcurveto
          hintmask 1111101011110000
          -35 -16 24 33 41 24 35 67 hvcurveto
          87 -377 hlineto
          endchar
        </CharString>
        <CharString name="two">
          4 -10 78 -78 241 -207 44 -44 80 582 20 hstemhm
          36 45 -19 181 -21 21 103 132 -97 97 -97 118 hintmask 1000101001000000
          55 48 rmoveto
          131 423 141 217 vvcurveto
          93 -84 76 -123 -124 -85 -79 -101 -71 42 -40 56 54 29 38 33 29 -21 30 -19 -5 -4 -3 -4 vhcurveto
          hintmask 0010110100100000
          -11 28 -10 -31 vvcurveto
          -27 -20 -28 -42 -47 -32 36 58 83 64 78 99 103 34 -84 -69 vhcurveto
          -237 -345 -82 -178 vvcurveto
          -9 1 -14 3 -14 vhcurveto
          19 25 29 6 32 hhcurveto
          hintmask 0100110100100000
          71 81 -34 56 hhcurveto
          94 71 74 82 53 -31 32 -47 hvcurveto
          hintmask 1000110110000000
          -47 -28 -31 -31 -20 12 -13 8 4 3 3 3 hvcurveto
          5 -9 2 19 vvcurveto
          27 21 18 33 37 26 -25 -38 -52 -43 -30 -66 vhcurveto
          hintmask 0001110110000000
          -70 -71 36 -66 hhcurveto
          -39 -38 -13 -43 -33 hvcurveto
          endchar
        </CharString>
        <CharString name="twosuperior">
          -160 286 18 callgsubr
          hstemhm
          34 11 callsubr
          hintmask 1000011001000000
          48 329 25 callgsubr
          hintmask 1000010010100000
          42 callsubr
          12 32 26 -21 10 -9 -2 -1 0 -3 hvcurveto
          hintmask 0000101001000000
          -6 17 -7 -16 20 callsubr
          hintmask 0010011000010000
          -4 callgsubr
          hintmask 0100011000001000
          19 callsubr
          hintmask 1000011000100000
          -32 -17 -23 -18 hvcurveto
          hintmask 1000011000010000
          -9 4 -17 9 3 7 3 3 vhcurveto
          hintmask 1000010100001000
          3 -7 1 14 vvcurveto
          18 30 callgsubr
          hintmask 0001011001000000
          38 callgsubr
          endchar
        </CharString>
        <CharString name="u">
          -13 callgsubr
          6 callsubr
          hintmask 10011100
          -87 callsubr
          hintmask 01011010
          -1 callgsubr
          hintmask 10101100
          -71 callsubr
          endchar
        </CharString>
        <CharString name="uacute">
          -84 callsubr
          145 503 -82 callsubr
        </CharString>
        <CharString name="ucircumflex">
          -7 -10 31 0 -21 21 197 0 20 225 58 173 -20 6 callsubr
          hintmask 0010111100000000
          -85 callgsubr
          hintmask 1001111100000000
          -40 callsubr
          hintmask 0101111010000000
          -146 99 463 -99 -303 vlineto
          36 -3 -25 42 -44 -76 callsubr
          -5 483 -89 callsubr
        </CharString>
        <CharString name="udieresis">
          -13 callgsubr
          83 106 hstemhm
          58 100 -58 44 callsubr
          -76 20 0 99 hintmask 1001110010000000
          -87 callsubr
          hintmask 0101110001000000
          -1 callgsubr
          hintmask 1010101100000000
          -71 callsubr
          -164 388 -106 callgsubr
        </CharString>
        <CharString name="ugrave">
          -84 callsubr
          -24 383 -67 callgsubr
        </CharString>
        <CharString name="underscore">
          274 -200 60 hstem
          128 -140 rmoveto
          -60 558 46 callgsubr
        </CharString>
        <CharString name="uni00AD">
          12 callgsubr
        </CharString>
        <CharString name="v">
          11 -10 20 223 20 187 22 -22 36 hstemhm
          13 20 143 91 95 20 111 20 hintmask 11101111
          295 -10 rmoveto
          156 62 236 110 88 -40 38 16 callsubr
          -4 12 11 vvcurveto
          33 24 14 18 36 33 -37 -78 -134 -90 -183 48 callgsubr
          43 39 vvcurveto
          hintmask 11011111
          89 -16 88 -94 -17 callsubr
          66 2 -92 -63 hvcurveto
          -32 -3 -48 -30 vvcurveto
          -75 18 -110 104 vhcurveto
          endchar
        </CharString>
        <CharString name="w">
          221 -10 20 223 20 187 36 -4 -20 hstemhm
          13 20 144 87 149 94 65 21 101 20 hintmask 1101111110000000
          303 -10 rmoveto
          53 22 30 61 46 hvcurveto
          -47 12 49 -44 55 hhcurveto
          140 34 229 125 91 -31 37 16 callsubr
          -3 12 11 vvcurveto
          33 23 14 18 36 24 -32 -83 -134 -51 -193 48 callgsubr
          40 44 vvcurveto
          -94 -15 hlineto
          -9 -2 -71 -1 -35 vhcurveto
          -80 -2 -48 -81 -48 hhcurveto
          -42 -9 47 64 hvcurveto
          51 6 62 58 vvcurveto
          hintmask 1110111110000000
          98 -17 86 -93 -17 callsubr
          57 12 -52 -69 hvcurveto
          -45 -5 -51 -49 vvcurveto
          -97 19 -87 112 vhcurveto
          endchar
        </CharString>
        <CharString name="x">
          -15 -5 38 -12 -21 428 38 -3 -20 hstemhm
          52 20 377 20 hintmask 10011100
          508 119 rmoveto
          -4 -5 -6 -82 -49 hhcurveto
          -19 -21 11 25 -13 hvcurveto
          -87 172 rlineto
          107 70 54 53 99 vvcurveto
          -20 hlineto
          -4 -84 -54 -60 -93 -60 -56 111 rcurveline
          hintmask 01101100
          60 -30 -47 36 -47 hhcurveto
          -83 -29 -99 -13 -4 1 -8 8 hvcurveto
          4 9 2 82 49 hhcurveto
          28 28 -43 -59 30 hvcurveto
          57 -113 rlineto
          -96 -64 -70 -53 -96 vvcurveto
          20 hlineto
          3 79 66 59 86 57 62 -121 rcurveline
          hintmask 10101100
          -49 25 44 -30 47 hhcurveto
          55 56 53 59 1 hvcurveto
          12 -9 0 0 vhcurveto
          endchar
        </CharString>
        <CharString name="y">
          -31 callgsubr
          22 callsubr
          90 20 102 100 -23 23 hintmask 1111010110110000
          -95 callsubr
          hintmask 1111101101101000
          -90 callgsubr
          endchar
        </CharString>
        <CharString name="yacute">
          -31 callgsubr
          261 -20 22 callsubr
          90 20 102 100 -23 23 hintmask 1111010111011000
          -95 callsubr
          hintmask 1111101110110100
          -90 callgsubr
          126 717 -82 callsubr
        </CharString>
        <CharString name="ydieresis">
          -31 callgsubr
          93 106 22 callsubr
          -80 107 63 20 29 107 -34 100 -23 23 hintmask 1111010111001010
          -95 callsubr
          hintmask 1111101110101101
          -90 callgsubr
          hintmask 1111101110011101
          -157 602 -106 callgsubr
        </CharString>
        <CharString name="yen">
          232 23 -21 82 60 56 60 -60 101 132 20 14 -20 76 20 97 56 -22 22 hstemhm
          32 20 200 95 29 99 71 22 150 20 hintmask 1110101011111100
          475 144 rmoveto
          56 159 60 -159 28 vlineto
          82 26 11 78 79 29 -1 29 27 vvcurveto
          66 9 52 62 42 38 -24 -41 -21 -10 -45 -48 vhcurveto
          -26 -9 14 -7 hhcurveto
          -4 -3 -6 -5 -18 41 -5 15 44 27 47 42 58 -53 26 -50 -77 -12 -70 -81 hvcurveto
          hintmask 1101101101111100
          -166 -10 -78 -116 -71 -1 34 43 -1 vhcurveto
          160 -3 -3 158 -117 hhcurveto
          -89 -103 -92 -82 -42 27 -47 44 15 47 callsubr
          hvcurveto
          hintmask 1110011101111100
          -3 callsubr
          vhcurveto
          hintmask 1110101101111100
          -64 callsubr
          20 49 49 71 61 84 4 -134 -69 2 hvcurveto
          1 -49 6 -92 117 -14 rrcurveto
          -22 -154 -60 154 -56 -156 -60 156 -82 99 82 157 46 callgsubr
        </CharString>
        <CharString name="z">
          32 callgsubr
          31 callgsubr
          hintmask 11111010
          -10 callsubr
          hintmask 11110101
          -53 callgsubr
          hintmask 11111010
          -13 callsubr
          endchar
        </CharString>
        <CharString name="zcaron">
          32 callgsubr
          230 -20 21 -20 31 callgsubr
          hintmask 1111011010000000
          -10 callsubr
          hintmask 1111010101000000
          -53 callgsubr
          hintmask 1111011010000000
          -13 callsubr
          462 694 rmoveto
          -55 hlineto
          -112 -94 rlineto
          hintmask 1111101010000000
          33 callgsubr
        </CharString>
        <CharString name="zero">
          71 -10 21 370 20 285 20 hstemhm
          52 100 -100 232 143 131 -101 101 hintmask 11110100
          52 332 rmoveto
          -236 122 -106 132 118 134 84 269 177 -58 186 -186 -189 -73 -191 -183 vhcurveto
          100 -8 rmoveto
          131 37 231 119 72 47 -85 -85 -57 -21 -58 -53 vhcurveto
          hintmask 11101010
          -37 -32 29 34 hvcurveto
          38 30 2 12 vvcurveto
          4 -5 2 -4 -10 -30 -19 -41 -51 46 -30 42 44 43 34 55 5 vhcurveto
          9 -41 3 -69 -37 vvcurveto
          -176 -70 -136 -82 vhcurveto
          hintmask 11110100
          -81 -72 130 183 hvcurveto
          endchar
        </CharString>
      <CharString index="0">
        rmoveto
        28 -24 -25 25 -42 hhcurveto
        -52 -31 -48 -46 -30 27 -29 32 17 26 14 22 3 -3 12 -4 -3 0 -3 -3 -1 hvcurveto
        -19 -5 -14 -6 -12 hhcurveto
        -28 -12 22 17 34 26 22 31 40 24 -29 -37 31 hvcurveto
        -24 20 26 -25 42 hhcurveto
        52 31 48 46 30 -27 29 -32 -17 -26 -14 -22 -3 3 -12 4 3 0 3 3 1 hvcurveto
        return
      </CharString>
      <CharString index="1">
        rmoveto
        -106 callsubr
        219 hmoveto
        -106 callsubr
        endchar
      </CharString>
      <CharString index="2">
        48 343 rmoveto
        -262 185 -91 114 123 178 103 237 186 -110 190 -186 -195 -109 -206 -157 vhcurveto
        100 -12 rmoveto
        189 28 166 168 135 63 -111 -124 -115 -54 -42 -54 -33 callsubr
        -27 callgsubr
        return
      </CharString>
      <CharString index="3">
        106 vstem
        -107 callsubr
        return
      </CharString>
      <CharString index="4">
        -102 callsubr
        1 -43 -45 hhcurveto
        return
      </CharString>
      <CharString index="5">
        205 -105 callsubr
        return
      </CharString>
      <CharString index="6">
        hstem
        48 100 190 20 184 -104 callgsubr
        return
      </CharString>
      <CharString index="7">
        hstem
        11 callgsubr
        106 vstem
        -99 callsubr
        -97 callsubr
        hvcurveto
        -53 callsubr
        return
      </CharString>
      <CharString index="8">
        -47 callsubr
        241 -20 -37 callgsubr
        hintmask 1001011100011000
        -65 callsubr
        hintmask 1100101010101000
        -70 callgsubr
        hintmask 1100101100101000
        -101 callsubr
        hintmask 1010011001101000
        -86 callsubr
        return
      </CharString>
      <CharString index="9">
        -78 callgsubr
        -95 callgsubr
        return
      </CharString>
      <CharString index="10">
        -69 callsubr
        -69 callgsubr
        vhcurveto
        return
      </CharString>
      <CharString index="11">
        -98 callsubr
        -19 callsubr
        return
      </CharString>
      <CharString index="12">
        -66 -127 -31 -118 -102 95 -51 88 hvcurveto
        -83 callgsubr
        15 -4 11 -9 hvcurveto
        return
      </CharString>
      <CharString index="13">
        -108 -38 -104 -60 -114 vvcurveto
        -128 139 -70 127 -52 callsubr
        -33 -46 -34 -21 13 -29 21 5 5 2 4 vhcurveto
        10 -25 -1 34 vvcurveto
        return
      </CharString>
      <CharString index="14">
        -47 -37 22 -39 46 38 35 27 26 return
      </CharString>
      <CharString index="15">
        -175 -94 callsubr
        return
      </CharString>
      <CharString index="16">
        -45 17 40 -16 35 hhcurveto
        32 37 14 20 20 hvcurveto
        6 6 22 25 13 vvcurveto
        4 -5 4 -4 -2 -1 -1 -2 -1 vhcurveto
        return
      </CharString>
      <CharString index="17">
        -7 -15 -8 -16 hhcurveto
        -31 -20 30 32 49 31 38 48 72 28 -73 -83 -141 -80 -139 -125 -78 -6 72 125 103 -4 156 -111 -87 -53 -52 -72 -42 27 -47 44 15 47 callsubr
        -66 callsubr
        49 30 54 59 49 2 -92 -155 -35 0 -172 172 hvcurveto
        return
      </CharString>
      <CharString index="18">
        67 37 -63 -80 -145 -77 -138 -124 -64 -18 37 91 -2 hvcurveto
        -1 39 3 95 -19 76 rrcurveto
        70 -18 -68 48 -61 hhcurveto
        -57 -54 -37 -75 -40 29 -43 44 16 38 6 17 -66 callsubr
        33 19 48 53 87 1 -106 -137 -35 0 -172 172 hvcurveto
        return
      </CharString>
      <CharString index="19">
        -33 callgsubr
        241 -20 -101 callgsubr
        return
      </CharString>
      <CharString index="20">
        -22 callsubr
        241 -20 -1 callsubr
        hintmask 10101101
        -75 callgsubr
        hvcurveto
        hintmask 10011011
        -71 callgsubr
        hintmask 01011011
        -31 callsubr
        hintmask 10101101
        -60 callsubr
        return
      </CharString>
      <CharString index="21">
        -40 callgsubr
        243 -20 -100 callgsubr
        return
      </CharString>
      <CharString index="22">
        264 211 rmoveto
        5 13 11 2 9 hhcurveto
        42 11 -46 -23 -63 -75 -65 -57 -50 -10 92 142 hvcurveto
        208 -100 -234 vlineto
        return
      </CharString>
      <CharString index="23">
        24 24 29 29 -24 24 return
      </CharString>
      <CharString index="24">
        88 187 -78 callsubr
        return
      </CharString>
      <CharString index="25">
        28 47 -12 -17 42 hvcurveto
        -136 -48 callsubr
        return
      </CharString>
      <CharString index="26">
        -18 callgsubr
        -110 -116 -38 -74 -90 -93 63 121 113 91 63 83 25 vhcurveto
        return
      </CharString>
      <CharString index="27">
        -59 callsubr
        74 34 60 64 vhcurveto
        return
      </CharString>
      <CharString index="28">
        -49 callgsubr
        -45 callgsubr
        hvcurveto
        return
      </CharString>
      <CharString index="29">
        50 74 27 58 81 38 -31 -162 2 vhcurveto
        17 -40 -46 13 -36 hhcurveto
        return
      </CharString>
      <CharString index="30">
        -145 7 149 73 -7 hvcurveto
        -43 20 34 -28 61 hhcurveto
        118 68 80 79 return
      </CharString>
      <CharString index="31">
        rmoveto
        -73 callsubr
        return
      </CharString>
      <CharString index="32">
        276 11 rmoveto
        -77 callgsubr
        return
      </CharString>
      <CharString index="33">
        13 8 -6 8 hhcurveto
        6 2 3 4 return
      </CharString>
      <CharString index="34">
        -29 -24 -24 -29 vhcurveto
        return
      </CharString>
      <CharString index="35">
        -159 -173 rlineto
        55 hlineto
        104 113 return
      </CharString>
      <CharString index="36">
        -80 callsubr
        -7 callsubr
        hvcurveto
        return
      </CharString>
      <CharString index="37">
        34 callgsubr
        -77 callsubr
        hvcurveto
        return
      </CharString>
      <CharString index="38">
        36 -30 30 -36 -36 callsubr
        return
      </CharString>
      <CharString index="39">
        269 252 rmoveto
        -67 callsubr
        -208 return
      </CharString>
      <CharString index="40">
        rmoveto
        49 hlineto
        -63 120 rlineto
        -100 hlineto
        endchar
      </CharString>
      <CharString index="41">
        -131 100 -105 129 82 57 28 51 25 vhcurveto
        -21 callgsubr
        return
      </CharString>
      <CharString index="42">
        35 43 vhcurveto
        32 -6 -20 -48 callgsubr
        return
      </CharString>
      <CharString index="43">
        -58 callgsubr
        -7 -15 -8 -16 hhcurveto
        -33 -18 33 28 return
      </CharString>
      <CharString index="44">
        112 -114 rlineto
        55 hlineto
        endchar
      </CharString>
      <CharString index="45">
        86 -54 callgsubr
        hvcurveto
        return
      </CharString>
      <CharString index="46">
        445 rmoveto
        -24 callgsubr
        -61 hmoveto
        -63 callsubr
        320 -300 rmoveto
        -63 callsubr
        return
      </CharString>
      <CharString index="47">
        37 26 35 67 hvcurveto
        return
      </CharString>
      <CharString index="48">
        8 7 3 0 6 vvcurveto
        6 -4 2 -6 -2 -2 0 -1 -2 vhcurveto
        return
      </CharString>
      <CharString index="49">
        0 42 0 18 vvcurveto
        6 -4 4 -4 vhcurveto
        return
      </CharString>
      <CharString index="50">
        -63 -65 -68 -65 42 75 41 18 -65 callgsubr
        -24 -55 -20 -74 hvcurveto
        return
      </CharString>
      <CharString index="51">
        -44 callgsubr
        55 20 74 86 -73 52 -77 -84 -79 -49 -187 hvcurveto
        -275 vlineto
        -263 461 rlineto
        -174 hlineto
        -104 callsubr
        return
      </CharString>
      <CharString index="52">
        vlineto
        48 48 -11 -52 -42 -30 -21 -57 -13 -8 1 3 -7 hvcurveto
        -1 -28 rlineto
        -3 10 10 -1 11 hhcurveto
        54 77 24 69 return
      </CharString>
      <CharString index="53">
        696 rmoveto
        -9 callsubr
        -93 callgsubr
        return
      </CharString>
      <CharString index="54">
        39 14 -31 -29 -37 -24 -34 -67 hvcurveto
        -205 hlineto
        294 418 28 callgsubr
        -289 hlineto
        -78 -36 -50 -103 callgsubr
        return
      </CharString>
      <CharString index="55">
        -49 callsubr
        -676 return
      </CharString>
      <CharString index="56">
        -39 -16 31 29 -60 callgsubr
        return
      </CharString>
      <CharString index="57">
        hstemhm
        -28 -26 callsubr
        47 101 227 -6 callgsubr
        return
      </CharString>
      <CharString index="58">
        19 5 14 6 12 hhcurveto
        28 12 -22 -17 return
      </CharString>
      <CharString index="59">
        -32 callsubr
        21 -28 11 -17 return
      </CharString>
      <CharString index="60">
        -19 callgsubr
        -55 callsubr
        -53 callsubr
        return
      </CharString>
      <CharString index="61">
        24 48 79 67 47 -17 40 -55 -43 -20 -46 -15 -28 10 -11 20 -23 hvcurveto
        -36 32 -30 -74 31 hhcurveto
        return
      </CharString>
      <CharString index="62">
        -34 -26 -22 -31 -40 -24 29 33 -28 return
      </CharString>
      <CharString index="63">
        -4 -2 -3 -5 -21 28 -11 17 24 return
      </CharString>
      <CharString index="64">
        -70 47 -77 85 56 41 22 86 30 return
      </CharString>
      <CharString index="65">
        -76 callgsubr
        hintmask 10110000
        -68 callsubr
        return
      </CharString>
      <CharString index="66">
        41 19 -65 callgsubr
        -22 -57 -17 -80 return
      </CharString>
      <CharString index="67">
        25 -5 20 144 20 122 20 130 20 return
      </CharString>
      <CharString index="68">
        77 -65 75 -108 -108 -119 -95 -152 return
      </CharString>
      <CharString index="69">
        -41 callsubr
        hintmask 01110000
        -24 callsubr
        return
      </CharString>
      <CharString index="70">
        hstemhm
        44 14 callgsubr
        158 141 -20 20 28 20 return
      </CharString>
      <CharString index="71">
        -42 38 -23 37 44 44 31 57 66 -58 37 -57 -78 -123 -70 -162 vhcurveto
        -97 -101 return
      </CharString>
      <CharString index="72">
        rmoveto
        48 57 rlineto
        -280 -62 -20 206 20 -61 433 vlineto
        -159 -210 rlineto
        return
      </CharString>
      <CharString index="73">
        37 23 33 66 4 vhcurveto
        8 4 3 6 hvcurveto
        return
      </CharString>
      <CharString index="74">
        -10 20 264 20 122 20 250 20 return
      </CharString>
      <CharString index="75">
        -15 callsubr
        48 100 return
      </CharString>
      <CharString index="76">
        97 -250 21 203 -21 44 20 243 20 4 20 -20 188 1 -20 return
      </CharString>
      <CharString index="77">
        rmoveto
        -277 269 rlineto
        -85 vlineto
        177 -184 -177 -192 rlineto
        -85 vlineto
        return
      </CharString>
      <CharString index="78">
        0 callgsubr
        119 -100 100 return
      </CharString>
      <CharString index="79">
        -55 callgsubr
        49 -38 22 -44 10 hvcurveto
        return
      </CharString>
      <CharString index="80">
        vhcurveto
        -74 callgsubr
        return
      </CharString>
      <CharString index="81">
        36 30 30 36 return
      </CharString>
      <CharString index="82">
        -157 130 -131 157 157 130 130 157 157 -129 130 -157 -158 -130 -130 -156 vhcurveto
        return
      </CharString>
      <CharString index="83">
        -7 callgsubr
        -16 callsubr
        return
      </CharString>
      <CharString index="84">
        121 -10 21 219 20 237 20 4 20 145 21 9 -20 return
      </CharString>
      <CharString index="85">
        rlineto
        -1 -1 -8 -11 -6 vvcurveto
        -3 1 -2 6 vhcurveto
        return
      </CharString>
      <CharString index="86">
        -29 hlineto
        -43 -20 -59 -15 -41 hhcurveto
        return
      </CharString>
      <CharString index="87">
        20 -20 38 77 38 34 callsubr
        return
      </CharString>
      <CharString index="88">
        -45 -27 39 30 25 19 28 27 return
      </CharString>
      <CharString index="89">
        46 45 17 39 63 65 -43 -82 return
      </CharString>
      <CharString index="90">
        142 450 rmoveto
        -395 -600 rlineto
        68 hlineto
        395 600 rlineto
        -149 -450 47 callgsubr
        vhcurveto
        return
      </CharString>
      <CharString index="91">
        3 -2 2 -6 vhcurveto
        -406 hlineto
        -9 callsubr
        -49 -35 22 -40 45 38 36 24 33 4 -4 2 -5 hvcurveto
        -14 11 -43 -64 hhcurveto
        return
      </CharString>
      <CharString index="92">
        222 -11 49 -25 -21 709 -20 return
      </CharString>
      <CharString index="93">
        127 107 108 128 127 108 -108 -127 -128 -108 -107 -127 -128 -107 107 128 vhcurveto
        return
      </CharString>
      <CharString index="94">
        -7 -10 31 0 -21 218 20 -20 245 return
      </CharString>
      <CharString index="95">
        -23 callsubr
        81 -100 40 -77 -94 -125 -71 -132 -90 38 -46 72 -25 hvcurveto
        return
      </CharString>
      <CharString index="96">
        hvcurveto
        32 -6 callsubr
        11 -31 16 -29 hvcurveto
        return
      </CharString>
      <CharString index="97">
        20 132 20 return
      </CharString>
      <CharString index="98">
        hstemhm
        23 62 -62 100 -59 21 return
      </CharString>
      <CharString index="99">
        -34 -26 -16 -28 vhcurveto
        -46 9 42 -17 hhcurveto
        return
      </CharString>
      <CharString index="100">
        45 18 78 65 65 18 -78 -45 return
      </CharString>
      <CharString index="101">
        20 37 20 64 126 -20 20 return
      </CharString>
      <CharString index="102">
        -10 21 -21 190 -18 195 return
      </CharString>
      <CharString index="103">
        50 27 -33 -48 hvcurveto
        -135 -217 -54 -106 vvcurveto
        -7 1 -7 1 -7 vhcurveto
        9 21 20 3 19 hhcurveto
        return
      </CharString>
      <CharString index="104">
        1 2 2 4 3 vvcurveto
        3 -2 3 -4 vhcurveto
        -7 -24 return
      </CharString>
      <CharString index="105">
        9 41 20 46 11 hvcurveto
        -254 vlineto
        -34 -42 -49 -29 -33 hhcurveto
        -55 -60 78 123 hvcurveto
        endchar
      </CharString>
      <CharString index="106">
        -146 99 463 -99 -305 vlineto
        return
      </CharString>
      <CharString index="107">
        -9 callgsubr
        234 return
      </CharString>
      <CharString index="108">
        -10 callgsubr
        -32 callgsubr
        return
      </CharString>
      <CharString index="109">
        -21 524 -10 callgsubr
        return
      </CharString>
      <CharString index="110">
        18 -21 14 -29 -49 -30 -42 -45 -51 39 -55 98 93 128 50 171 vhcurveto
        492 return
      </CharString>
      <CharString index="111">
        -20 141 return
      </CharString>
      <CharString index="112">
        9 -24 hhcurveto
        -19 -6 -6 -5 -5 5 -3 14 -1 hvcurveto
        29 -2 24 -2 33 -35 rrcurveto
        return
      </CharString>
      <CharString index="113">
        137 rmoveto
        -20 159 -97 -62 -20 206 20 -61 97 61 20 -61 316 vlineto
        return
      </CharString>
      <CharString index="114">
        0 245 -20 20 197 31 return
      </CharString>
      <CharString index="115">
        -10 20 11 -21 return
      </CharString>
      <CharString index="116">
        rmoveto
        -29 24 -24 29 29 -84 callgsubr
        -29 -73 callgsubr
        return
      </CharString>
      <CharString index="117">
        -9 callsubr
        -102 callsubr
        return
      </CharString>
      <CharString index="118">
        32 100 90 20 184 return
      </CharString>
      <CharString index="119">
        -136 15 callgsubr
        302 46 callgsubr
      </CharString>
      <CharString index="120">
        rlineto
        4 6 6 7 5 vvcurveto
        return
      </CharString>
      <CharString index="121">
        100 -53 53 -53 99 return
      </CharString>
      <CharString index="122">
        240 60 hstem
        51 45 callsubr
        -60 return
      </CharString>
      <CharString index="123">
        47 65 -40 -57 hvcurveto
        -52 -52 -11 -13 vvcurveto
        -3 2 -7 6 vhcurveto
        return
      </CharString>
      <CharString index="124">
        99 20 -100 71 vlineto
        163 20 78 77 49 50 -32 -52 vhcurveto
        return
      </CharString>
      <CharString index="125">
        58 -58 165 -144 37 -37 65 -65 250 -16 169 return
      </CharString>
      <CharString index="126">
        800 rmoveto
        -34 -50 -32 50 rlineto
        -51 hlineto
        83 -90 86 90 rlineto
        return
      </CharString>
      <CharString index="127">
        -49 48 -22 35 38 56 27 80 115 -118 53 -95 return
      </CharString>
      <CharString index="128">
        11 -10 14 -14 -22 -9 -26 -18 -89 114 -38 69 vhcurveto
        return
      </CharString>
      <CharString index="129">
        -189 -92 0 -44 -46 -93 53 81 37 19 36 42 vhcurveto
        return
      </CharString>
      <CharString index="130">
        44 -21 546 -20 hstem
        return
      </CharString>
      <CharString index="131">
        -16 1 -43 -45 hhcurveto
        return
      </CharString>
      <CharString index="132">
        rmoveto
        73 284 90 122 vvcurveto
        72 -97 24 -51 vhcurveto
        return
      </CharString>
      <CharString index="133">
        20 -26 12 -20 -35 -43 -34 -57 -74 72 -81 103 89 return
      </CharString>
      <CharString index="134">
        56 -14 -62 31 -65 hhcurveto
        -120 -78 -86 -154 return
      </CharString>
      <CharString index="135">
        13 callgsubr
        3 -2 2 -6 vhcurveto
        return
      </CharString>
      <CharString index="136">
        hstemhm
        49 -26 callsubr
        186 20 191 21 return
      </CharString>
      <CharString index="137">
        13 9 19 29 13 -21 -21 -29 -26 -20 -38 vhcurveto
        return
      </CharString>
      <CharString index="138">
        hstemhm
        35 22 -22 141 143 141 -22 22 return
      </CharString>
      <CharString index="139">
        -56 0 22 131 20 117 20 131 22 return
      </CharString>
      <CharString index="140">
        -104 93 rlineto
        -55 hlineto
        159 -133 rlineto
        endchar
      </CharString>
      <CharString index="141">
        -3 -4 -1 -9 return
      </CharString>
      <CharString index="142">
        -19 -76 -64 40 -83 103 92 69 69 111 return
      </CharString>
      <CharString index="143">
        38 hhcurveto
        8 4 2 10 6 -4 3 -15 -75 return
      </CharString>
      <CharString index="144">
        194 -118 48 -65 -52 -57 -31 -35 -47 return
      </CharString>
      <CharString index="145">
        -45 -61 28 -38 hhcurveto
        -30 -18 -18 -29 -24 hvcurveto
        return
      </CharString>
      <CharString index="146">
        -1 2 2 0 2 hhcurveto
        6 4 2 6 6 return
      </CharString>
      <CharString index="147">
        rmoveto
        -131 hlineto
        131 163 rlineto
        endchar
      </CharString>
      <CharString index="148">
        rmoveto
        -100 -550 100 hlineto
        hintmask 11100000
        -117 return
      </CharString>
      <CharString index="149">
        32 -4 -20 11 -29 callsubr
        hvcurveto
        return
      </CharString>
      <CharString index="150">
        -20 hstemhm
        35 100 222 117 -100 100 return
      </CharString>
      <CharString index="151">
        -312 20 -21 return
      </CharString>
      <CharString index="152">
        61 166 60 return
      </CharString>
      <CharString index="153">
        60 vlineto
        endchar
      </CharString>
      <CharString index="154">
        rmoveto
        -7 callgsubr
        return
      </CharString>
      <CharString index="155">
        -89 -42 -5 73 76 vhcurveto
        58 3 return
      </CharString>
      <CharString index="156">
        40 -34 34 -40 -41 -34 -34 -40 return
      </CharString>
      <CharString index="157">
        27 23 23 27 27 23 -23 -27 return
      </CharString>
      <CharString index="158">
        -254 -90 24 866 24 hstem
        return
      </CharString>
      <CharString index="159">
        -193 -90 24 739 24 hstem
        return
      </CharString>
      <CharString index="160">
        hvcurveto
        11 -9 2 -12 vhcurveto
        endchar
      </CharString>
      <CharString index="161">
        22 -22 95 50 20 return
      </CharString>
      <CharString index="162">
        -20 hstemhm
        -40 20 return
      </CharString>
</ttFont>
